<?xml version="1.0" encoding="UTF-8" standalone="no"?>
<!-- Created with Inkscape (http://www.inkscape.org/) -->

<svg
   xmlns:dc="http://purl.org/dc/elements/1.1/"
   xmlns:cc="http://creativecommons.org/ns#"
   xmlns:rdf="http://www.w3.org/1999/02/22-rdf-syntax-ns#"
   xmlns:svg="http://www.w3.org/2000/svg"
   xmlns="http://www.w3.org/2000/svg"
   xmlns:sodipodi="http://sodipodi.sourceforge.net/DTD/sodipodi-0.dtd"
   xmlns:inkscape="http://www.inkscape.org/namespaces/inkscape"
   version="1.1"
   id="svg2"
   xml:space="preserve"
   width="328.45999"
   height="277"
   viewBox="0 0 328.45999 277"
   sodipodi:docname="logo-who-wins .svg"
   inkscape:version="0.92.5 (2060ec1f9f, 2020-04-08)"><metadata
     id="metadata8"><rdf:RDF><cc:Work
         rdf:about=""><dc:format>image/svg+xml</dc:format><dc:type
           rdf:resource="http://purl.org/dc/dcmitype/StillImage" /><dc:title></dc:title></cc:Work></rdf:RDF></metadata><defs
     id="defs6"><clipPath
       clipPathUnits="userSpaceOnUse"
       id="clipPath18"><path
         d="M 0,0 H 1562.5 V 1593.75 H 0 Z"
         id="path16"
         inkscape:connector-curvature="0"
         style="clip-rule:evenodd" /></clipPath><clipPath
       clipPathUnits="userSpaceOnUse"
       id="clipPath32"><path
         d="M 0,0 H 1562.5 V 1562.5 H 0 Z"
         id="path30"
         inkscape:connector-curvature="0"
         style="clip-rule:evenodd" /></clipPath><clipPath
       clipPathUnits="userSpaceOnUse"
       id="clipPath44"><path
         d="M 366.55527,272.06592 H 1092.9326 V 1137.6909 H 366.55527 Z"
         id="path42"
         inkscape:connector-curvature="0"
         style="clip-rule:evenodd" /></clipPath><clipPath
       clipPathUnits="userSpaceOnUse"
       id="clipPath56"><path
         d="M 365.69971,272.06592 H 1093.8247 V 1137.6909 H 365.69971 Z"
         id="path54"
         inkscape:connector-curvature="0"
         style="clip-rule:evenodd" /></clipPath><clipPath
       clipPathUnits="userSpaceOnUse"
       id="clipPath74"><path
         d="M 118.69891,801.92072 H 1338.8708 v 175 H 118.69891 Z"
         id="path72"
         inkscape:connector-curvature="0"
         style="clip-rule:evenodd" /></clipPath><clipPath
       clipPathUnits="userSpaceOnUse"
       id="clipPath86"><path
         d="M 0,0 H 1562.5 V 1562.5 H 0 Z"
         id="path84"
         inkscape:connector-curvature="0"
         style="clip-rule:evenodd" /></clipPath><clipPath
       clipPathUnits="userSpaceOnUse"
       id="clipPath100"><path
         d="m 554.13306,931.37439 h 350 v 212.50001 h -350 z"
         id="path98"
         inkscape:connector-curvature="0"
         style="clip-rule:evenodd" /></clipPath><clipPath
       clipPathUnits="userSpaceOnUse"
       id="clipPath112"><path
         d="M 0,0 H 1562.5 V 1562.5 H 0 Z"
         id="path110"
         inkscape:connector-curvature="0"
         style="clip-rule:evenodd" /></clipPath><clipPath
       clipPathUnits="userSpaceOnUse"
       id="clipPath1003"><rect
         style="opacity:1;fill:none;fill-opacity:1;stroke:#00ff00;stroke-width:3.12500024;stroke-linejoin:miter;stroke-miterlimit:4;stroke-dasharray:none;stroke-opacity:1"
         id="rect1005"
         width="1026.4379"
         height="186.90881"
         x="211.84178"
         y="796.3526"
         ry="0" /></clipPath></defs><sodipodi:namedview
     pagecolor="#ffffff"
     bordercolor="#666666"
     borderopacity="1"
     objecttolerance="10"
     gridtolerance="10"
     guidetolerance="10"
     inkscape:pageopacity="0"
     inkscape:pageshadow="2"
     inkscape:window-width="1920"
     inkscape:window-height="1055"
     id="namedview4"
     showgrid="false"
     showguides="false"
     inkscape:guide-bbox="true"
     inkscape:zoom="1.3350176"
     inkscape:cx="79.840618"
     inkscape:cy="159.70095"
     inkscape:window-x="0"
     inkscape:window-y="0"
     inkscape:window-maximized="1"
     inkscape:current-layer="g10"><sodipodi:guide
       position="232.95573,246.4387"
       orientation="1,0"
       id="guide142"
       inkscape:locked="false" /><sodipodi:guide
       position="60.911017,215.04237"
       orientation="0,1"
       id="guide148"
       inkscape:locked="false" /><sodipodi:guide
       position="67.789368,239.69721"
       orientation="1,0"
       id="guide180"
       inkscape:locked="false" /><sodipodi:guide
       position="396.24946,237.45005"
       orientation="1,0"
       id="guide182"
       inkscape:locked="false" /></sodipodi:namedview><g
     id="g10"
     inkscape:groupmode="layer"
     inkscape:label="Who wins "
     transform="matrix(0.31999998,0,0,0.31999998,0,-222.99999)"><g
       id="g1031"
       transform="translate(-212.15091,425.39871)"><g
         id="g38"><g
           clip-path="url(#clipPath44)"
           id="g40"><g
             transform="matrix(1.7299688,0,0,1.7312499,366.55527,272.06592)"
             id="g46"><path
               inkscape:connector-curvature="0"
               id="path48"
               style="fill:#3a3b89;fill-opacity:1;fill-rule:nonzero;stroke:none"
               d="M 408.9375,115.67187 C 405.82813,113.37109 346.76172,70.234375 272.22266,52.144531 261.62891,33.824219 231.66797,5.6367188 212.62891,0.36328101 211.75,0.12109401 210.84766,0 209.94141,0 c -0.90235,0 -1.80469,0.12109401 -2.6836,0.36328101 -19.03906,5.27343779 -49,33.46093799 -59.59375,51.78124999 C 73.121094,70.234375 14.058594,113.37109 10.949219,115.67187 4.09375,120.73828 0,128.85156 0,137.37891 c 0,19.11328 1.066406,188.77343 37.996094,259.55468 17.097656,32.76563 49.917969,59.86329 97.558596,80.54688 35.18359,15.26953 65.93359,21.39453 69.3164,22.03906 1.66407,0.32031 3.3711,0.48047 5.07032,0.48047 1.70312,0 3.40625,-0.16016 5.0664,-0.48047 3.39063,-0.64453 34.14063,-6.76953 69.32422,-22.03906 47.64063,-20.68359 80.46094,-47.78125 97.5586,-80.54688 36.92578,-70.78125 37.99609,-240.4414 37.99609,-259.55468 0,-8.52735 -4.09766,-16.64063 -10.94922,-21.70704" /></g></g></g><g
         id="g50"><g
           clip-path="url(#clipPath56)"
           id="g52"><g
             transform="matrix(1.7299688,0,0,1.7312499,366.55527,272.06592)"
             id="g58"><path
               inkscape:connector-curvature="0"
               id="path60"
               style="fill:#2e306c;fill-opacity:1;fill-rule:nonzero;stroke:none"
               d="m 180.81641,289.28906 -0.59766,2.11328 c -0.33984,1.19141 -0.63672,2.44532 -0.87891,3.72657 l -0.26953,1.42578 -0.19531,1.45703 c -0.16406,1.22656 -0.29687,2.49219 -0.40234,3.875 l -0.0469,0.59766 -0.0742,1.46484 c -0.10547,2.14453 -0.14062,4.3125 -0.10937,6.44531 l 0.043,2.59375 -2.51953,-0.61719 c -9.12891,-2.24218 -17.3711,-2.71093 -22.67579,-2.71093 l -0.78515,0.004 -0.21485,-0.0469 c -0.92187,-0.20313 -1.8125,-0.41797 -2.63672,-0.63672 l -0.28906,-0.082 c -0.32422,-0.0937 -0.64453,-0.1836 -0.96094,-0.28125 l -1.46484,-0.44531 0.12109,-3.96485 v -0.35547 l 0.16016,-0.375 c 0.34766,-0.82031 0.75,-1.74218 1.1875,-2.71875 l 0.41406,-0.92187 -0.0391,-0.004 1.30859,-2.66015 c 0.95313,-1.9375 1.87891,-3.66407 2.75391,-5.13282 l 0.70313,-1.17578 2.0625,-2.82422 c 1.03515,-1.23047 2,-2.0625 2.95312,-2.53515 l 0.60156,-0.29688 21.85157,4.08203 z m -55.75391,-87.6914 c -9.19531,1.51172 -16.60937,4.55859 -22.10156,9.07422 8.13672,1.82812 26.30468,7.17187 30.21484,19.0039 l 0.93359,2.83203 -2.97265,-0.20703 c -0.0234,-0.004 -2.07031,-0.14453 -5.25,-0.14453 -7.48438,0 -25.18359,0.83984 -34.38672,8.27344 l 33.08203,32.1914 -2.44922,1.28125 c -0.40625,0.21094 -40.527341,21.41407 -46.890622,46.26172 -1.847657,7.21875 -0.613282,14.13672 3.675781,20.56641 22.328121,33.49609 48.828121,38.70312 49.093751,38.75 l 1.70312,0.31641 -2.52343,64.875 -2.88282,-1.69141 c -7.95703,-4.67578 -12.30468,-8.10547 -12.48828,-8.25 l -0.76562,-0.60547 0.11328,-11.77734 0.25391,-26.16016 c -0.55079,0.0117 -1.10157,0.0156 -1.64063,0.0156 -15.683594,0 -27.941406,-4.34375 -36.425781,-12.90625 C 61.414063,371.24609 61.21875,355.10156 61.234375,353.30078 l 4,0.0352 c -0.0078,1.01172 0.06641,21.01953 16.953125,31.89844 C 71.507813,370.67969 68.527344,344.47656 67.707031,332.39844 l -12.339843,19.34375 -1.691407,-2.6211 c -0.351562,-0.55078 -8.644531,-13.8125 -2.75,-40.48828 C 55.78125,286.66406 75.515625,279.35547 83.074219,277.33203 72.898438,263.80469 50.632813,263.28906 50.394531,263.28516 l -2.34375,-0.0391 0.40625,-2.30859 c 0.03516,-0.1875 3.390625,-18.98437 10.003907,-35.41016 0.519531,-1.28515 1.046875,-2.625 1.582031,-3.99218 l 0.05078,-0.125 c 0,0 0.07031,-0.12891 0.07422,-0.13672 l 1.875,-4.92578 c 4.269531,-11.22657 8.546875,-23.34375 10.355469,-28.52344 -8.363282,0.44141 -17.039063,6.45703 -17.128907,6.52344 L 52.324219,191.832 c 7.453125,-15.26562 32.015625,-30.41406 40.261719,-35.18359 l -0.199219,-1.33985 c 2.570312,-0.3789 5.175781,-0.57031 7.750001,-0.57031 37.9375,0 67.05078,41.53125 81.02734,66.28906 4.32032,7.64844 11.24219,13.62891 19.4961,16.83594 l 1.27734,0.4961 v 4.41406 l -2.70703,-1.01953 c -8.34375,-3.14844 -15.54297,-9.02344 -20.27344,-16.54688 l -13.84375,-22.0039 c -2.89453,-0.625 -13.44922,-2.69922 -25.63672,-2.69922 -3.875,0 -7.60547,0.21093 -11.08203,0.625 l -1.16406,0.13672 -0.0117,-0.0195 -2.15625,0.35157 z m -21.99219,199.8125 1.36328,0.46875 -0.29296,30.22265 -3.1211,-2.22265 c -0.53515,-0.38282 -1.070311,-0.76953 -1.601561,-1.15625 l -0.808594,-0.58594 c -0.25,-0.18359 -1.1875,-0.89453 -1.1875,-0.89453 -1.730469,-1.30078 -3.238281,-2.46485 -4.601562,-3.5625 -0.195313,-0.15625 -1.394532,-1.14453 -1.394532,-1.14453 -0.476562,-0.39063 -0.953125,-0.77735 -1.425781,-1.17578 -0.179687,-0.15235 -1.15625,-0.9961 -1.15625,-0.9961 -0.539062,-0.45703 -1.074219,-0.91797 -1.605469,-1.38672 -0.179687,-0.15625 -0.359375,-0.32031 -0.539062,-0.48437 l -0.589844,-0.53516 c -0.527344,-0.47265 -1.054687,-0.9414 -1.570312,-1.42187 -0.175782,-0.16407 -1.199219,-1.14063 -1.199219,-1.14063 -0.484375,-0.45312 -0.964844,-0.90625 -1.433594,-1.36719 l -0.109375,-0.10546 c -0.875,-0.85938 -1.671875,-1.65625 -2.457031,-2.46094 -0.199219,-0.20703 -0.980469,-1.03906 -0.980469,-1.03906 l -0.394531,-0.41407 c -0.375,-0.39453 -0.75,-0.78515 -1.113281,-1.17968 l -0.3125,-0.35157 c -1.582032,-1.73437 -3.074219,-3.45312 -4.425782,-5.11328 -0.25,-0.30078 -0.472656,-0.58984 -0.699218,-0.8789 l -4.054688,-5.11719 5.769531,1.49219 c 4.664063,1.20312 9.132813,1.36718 12.890625,1.36718 1.222657,0 2.425782,-0.0195 3.59375,-0.0391 1.136719,-0.0156 2.246094,-0.0352 3.328125,-0.0352 3.367188,0 6.929688,0.15235 10.128904,1.25782 z m 282.04297,-75.11328 c -0.14453,1.37109 -0.33594,2.80078 -0.59765,4.50781 l -3.96094,-0.0664 c -0.0977,-0.8125 -0.21094,-1.62109 -0.33594,-2.42969 l -0.91016,-4.78125 -0.30468,-1.10937 0.28125,1.17578 0.84765,4.65234 c 0.95703,6.58594 1.03125,13.07032 0.23438,19.35547 l -0.0234,0.19922 -0.22266,0.64453 -3.89062,-0.71875 c 0.0469,-1.51172 0.043,-3.01172 -0.008,-4.46484 l -0.26953,-4.26953 -0.14063,-1.04688 0.10156,1.00391 0.23047,4.25391 c 0.13281,5.88671 -0.3789,11.60546 -1.51953,17.0664 l -0.44531,1.85938 -0.11719,0.21875 c -4.27344,8.14062 -8.83984,14.23047 -11.91406,17.91015 -2.64453,3.16016 -4.42969,4.84375 -4.50781,4.91407 l -5.20704,4.89062 1.91407,-6.88281 c 0.0351,-0.12891 2.61328,-9.57422 2.37109,-18.86719 -2.90625,10.22266 -10.16406,24.78516 -28.23828,30.11328 l -0.64063,-1.32031 c -1.53515,0.61328 -3.17578,1.10547 -5.03906,1.51172 -3.0664,0.66015 -6.30859,0.99219 -9.64453,0.99219 -0.33984,0 -0.67578,-0.004 -1.01172,-0.0117 -5.85156,-0.11719 -12.23437,-1.15625 -20.08203,-3.26953 l -1.42187,-0.38282 -0.47266,-12.15234 1.71094,-0.3125 c 0.0742,-0.0117 6.98047,-1.33984 16.60937,-6.98828 -25.5664,-5.24219 -75.07812,-25.34375 -99.70312,-42.80078 l -0.8125,-0.58203 -0.0156,0.0273 -1.96484,-1.49609 c -0.82031,-0.625 -1.60547,-1.2461 -2.35547,-1.85938 -6.61328,-5.42969 -14.64844,-9.57422 -23.87891,-12.32422 l -1.39062,-0.41406 -0.0391,-1.44531 c -0.0898,-3.23828 -0.0508,-6.125 0.12109,-8.83203 0.30078,-4.54688 0.92578,-8.38282 1.91016,-11.73047 l 0.50781,-1.73438 5.52344,1.03516 c 1.22265,-1.8711 3.98437,-4.79688 9.33593,-5.03906 0.26953,-0.0117 0.5586,-0.0195 0.8711,-0.0195 3.26562,0 8.28125,0.6836 13.76953,1.875 6.57422,1.42579 19.74609,4.89454 34.0625,12.09766 17.99219,9.05078 71.15625,16.27344 83.08594,17.80469 -0.29688,-2.96094 -1.16797,-8.55078 -3.73438,-15.2461 -0.41016,-1.0625 -3.47266,-1.4375 -5.9375,-1.73437 -3.95703,-0.48047 -8.44531,-1.02734 -10.73828,-4.34375 -1.85156,-2.67969 -1.72266,-6.67188 -1.58594,-10.89844 0.082,-2.53515 0.16797,-5.15625 -0.21094,-7.3125 -0.043,-0.25781 -0.0937,-0.5039 -0.15234,-0.73828 l -0.41797,1.14453 -2.07422,-1.23828 c -1.10547,-0.65625 -2.0625,-1.20703 -2.82812,-1.64062 l -2.44922,-1.38282 2.10937,-1.85937 c 1.35547,-1.19531 2.78125,-2.38672 4.16016,-3.53906 0.80078,-0.66797 1.60547,-1.33985 2.41016,-2.02344 1.33593,-1.14063 2.45312,-2.13672 3.4414,-3.07813 l -2.04687,-2.37109 20.92187,-20.36328 c -9.19922,-7.4336 -26.89453,-8.27344 -34.375,-8.27344 l -3.96875,0.0117 1.9375,-3.07422 c 0.46875,-0.74609 0.94922,-1.48437 1.44922,-2.20703 1.91016,-2.6875 3.79688,-5.01953 5.77735,-7.14844 l 1.57812,-1.63672 1.66016,-1.61328 0.24218,-0.21484 c 0.50391,-0.44141 0.9375,-0.82031 1.28516,-1.26563 l 0.33594,-0.42187 0.5,-0.19922 c 4.60937,-1.83203 9.08203,-3.01953 12.125,-3.70703 -5.42969,-4.46875 -12.7461,-7.5 -21.8086,-9.03125 l -2.76953,-0.46485 -0.0273,0.0391 -1.16406,-0.13282 c -3.38282,-0.38671 -7,-0.58593 -10.75391,-0.58593 -12.20312,0 -22.74219,2.07422 -25.63672,2.69922 l -13.83984,22.0039 c -4.06641,6.46094 -9.85156,11.65625 -16.73438,15.01953 l -2.8789,1.41016 v -4.625 l 1.10937,-0.55469 c 6.89453,-3.42969 12.53125,-8.76562 16.29688,-15.42969 13.97656,-24.75781 43.08984,-66.28906 81.02734,-66.28906 2.57422,0 5.17969,0.19141 7.75,0.57031 33.79297,5.00391 47.59375,27.97657 53.21875,46.36329 l -3.66016,1.55859 c 0,0 -0.3125,-0.57422 -0.38281,-0.69531 -1.14844,-2.01953 -2.39844,-3.98047 -3.73828,-5.86328 1.32422,1.9414 2.55078,3.91406 3.66797,5.89062 3.53516,6.30078 6.17578,13.02344 7.85156,19.98047 l 0.10938,0.48437 0.008,0.16797 c 0.19141,3.1836 0.125,5.09766 0.12109,5.17969 l -0.27734,7.67969 -3.5,-6.83985 c -2.70703,-5.28906 -9.97266,-17.52734 -17.28125,-23.95703 4.24609,7.89063 11.17969,21.80078 15.98437,36.56641 l -3.51953,1.40234 1.26172,2.87891 1.65625,4.4375 1.46485,4.53516 c 1.82812,6.30859 2.9375,12.64062 3.32031,18.8789 l 0.21875,6.50391 -2.88281,-1.21485 c -2.28516,-0.96484 -10.56641,-4.11328 -21.125,-4.11328 -1.09766,0 -2.19141,0.0352 -3.28125,0.10157 7.3164,4.40625 19.70703,13.70312 25.53125,28.73046 2.71484,7.01172 3.67578,14.52344 2.84765,22.33204 z m -76.51562,83.51953 -3.21875,0.4414 0.043,0.28125 0.33203,2.6875 c 0.375,3.41407 0.5625,6.9336 0.57422,10.78125 -0.0156,2.44532 -0.14454,4.89453 -0.3711,7.30469 l -0.008,0.0664 0.17969,-0.10938 -0.90235,5.54688 -1.21484,0.83984 -3.53906,2.41406 0.55468,-5.66406 0.0312,-0.0195 0.13672,-2.92969 c 0.0312,-0.70312 0.0469,-1.41406 0.0508,-2.13672 -0.0469,0.89063 -0.0937,1.76563 -0.14062,2.61719 -0.0352,0.48438 -0.0781,0.94531 -0.11719,1.40234 l -0.10937,1.23047 0.0742,-0.043 c 0,0 -0.58985,4.54688 -0.61329,4.71094 l -0.13281,0.92188 -0.78515,0.49218 c -1.16797,0.73047 -2.45313,1.51172 -3.84766,2.32813 l -2.87891,1.69141 -1.52343,-39.09766 1.19921,-0.5625 c 5.89063,-2.77734 10.38282,-5.27734 13.10938,-6.88672 l 2.98437,-1.76172 0.13282,13.45313 z M 36.117188,192.20313 c -2.003907,5.10156 -3.597657,10.59765 -4.738282,16.32812 l -3.960937,-0.26953 C 25.054688,168.6875 25,138.67187 25,137.41406 l -0.0039,-1.01172 0.8125,-0.63281 c 0,0 0.613281,-0.45312 1.792969,-1.28516 0.390625,-0.27734 0.84375,-0.59375 1.355468,-0.94921 l 1.183594,-0.81641 c 0.851563,-0.58203 1.820313,-1.24219 2.90625,-1.96875 0.542969,-0.36328 1.113281,-0.74219 1.710938,-1.13672 C 53.269531,117.39844 91.183594,94.832031 137.14844,80.910156 l 3.55468,-1.078125 -1.05859,3.5625 c -3.92187,13.207032 -9.44141,31.335939 -15.53516,51.042969 -1.04687,3.38672 -1.18359,6.97656 -0.41015,10.42578 l 3.37891,2.59766 -1.95313,3.44531 c -7.64453,-3.02734 -15.49219,-4.5625 -23.33203,-4.5625 -2.953126,0 -5.945314,0.22266 -8.88672,0.66797 -27.140625,4.07812 -46.777344,19.70703 -56.789062,45.19141 z m 183.152342,-49.84376 -0.20312,0.24219 -7.125,4.47266 v 42.04687 l -2.88672,-1.43359 c -1.40235,-0.69531 -34.29297,-17.30859 -35.69922,-42.16016 l 3.875,-0.79687 c 0.0664,0.17578 1.44141,3.74609 4.84766,5.19922 -0.58594,-3.08985 -2.15625,-8.14453 -6.34766,-11.02735 l -1.15234,-0.78906 0.34765,-1.35156 c 0.0703,-0.28125 1.83203,-6.82813 9.625,-8.69922 l 1.17188,-0.28516 5.59375,6.35938 c 0.7539,0.85547 1.83984,1.34765 2.97265,1.34765 l 0.11719,2 0.0156,-2.0039 c 1.83984,-0.0156 3.41015,-1.28516 3.83593,-3.08594 0.53516,-2.25781 1.73047,-4.27344 3.46485,-5.82812 l 3.13672,-2.81641 3.0664,2.49609 -2.15234,3.67969 c -0.66016,1.13672 -0.66797,2.49219 -0.0117,3.63281 0.64844,1.14063 1.82422,1.82422 3.13672,1.82813 h 2.00781 c 1.32422,-0.008 2.51172,-0.69922 3.17188,-1.85547 0.66406,-1.15625 0.65625,-2.53516 -0.0156,-3.68359 l -2.10156,-3.60157 3.0625,-2.49609 3.14062,2.81641 c 4.60157,4.1289 5.08594,11.0664 1.10547,15.79296 z m 66.52344,3.8711 c -0.26563,-0.75781 -0.50391,-1.51953 -0.73828,-2.28125 -0.15235,-0.48047 -0.30078,-0.96094 -0.45313,-1.42188 -0.11718,-0.375 -0.24218,-0.75 -0.36718,-1.125 l -1.09375,-3.33593 -10.92969,8.35546 -5.07813,3.88282 c 0,0 -0.78125,0.6914 -1.14062,1.01953 l -0.004,-0.0625 -3.14453,2.96875 c -13.5625,12.80859 -24.78516,27.67187 -33.35937,44.17578 -6.56641,12.64063 -14.625,21.82813 -17.70313,25.11328 -0.15234,-0.13281 -0.31641,-0.28125 -0.49219,-0.4414 -3.98437,-3.64063 -14.05859,-13.5625 -21.5,-27.10157 -9.23437,-16.78906 -21.46093,-31.94922 -36.34375,-45.05859 l -0.1289,-0.11719 c -0.22266,-1.37891 -0.15235,-2.79687 0.21093,-4.14062 3.4336,-12.75391 14.77735,-55.039066 16.52344,-63.72266 0.23438,-1.15625 1,-3.347656 3.32031,-7.210937 2.6875,-4.472657 6.66016,-9.816407 11.1875,-15.039063 4.94141,-5.703125 10.0625,-10.734375 14.8125,-14.554687 4.29688,-3.453125 8.16016,-5.785157 11.17579,-6.746094 l 1.39453,-0.441406 v -20.4375 c 12.72656,5.941406 25.8125,19.214843 35.97656,30.371093 1.5,1.640625 2.90234,3.203125 4.1875,4.632813 3.40625,3.792969 5.86719,6.535156 7.48047,7.90625 0.10547,0.08984 0.69922,0.675781 1.89844,3.300781 1.44921,3.171875 3.28515,8.222656 5.45312,15.007813 6.01172,18.796875 12.91406,45.593747 15.60547,56.242187 l 0.0234,0.0859 0.0273,0.082 c 0.80078,2.30859 1.49219,4.38672 2.10547,6.33594 0,0 0.57031,1.84765 0.70312,2.28906 l 0.69532,2.33203 -0.30469,-0.86328 z m -156.0586,-2.24219 0.17188,0.66406 1.40234,1.07813 c 0.38282,0.29297 0.76563,0.59375 1.14453,0.89453 l 4.05079,3.17578 -0.25782,-4.42187 c -0.0352,-0.60547 -0.0508,-1.20704 -0.0547,-1.8086 0.0352,0.91797 0.0937,1.84766 0.17968,2.78516 0.0977,0.95312 0.2461,1.98047 0.45313,3.14062 l 0.1289,0.72266 0.56641,0.46875 c 1.04297,0.85547 2.07422,1.72656 3.09766,2.60547 l 4.11718,3.52734 -0.83984,-5.35547 c -0.082,-0.51172 -0.15234,-1.02734 -0.21484,-1.54687 0.125,0.71484 0.40625,2.30469 0.40625,2.30469 0.27734,1.44531 0.59765,2.92187 0.97656,4.51562 l 0.14453,0.60156 0.45313,0.41407 c 13.14843,12.0039 24.33593,25.25781 33.25781,39.39843 10.32812,16.35938 24.26562,28.32422 29.77734,32.70704 0.57422,0.45703 1.06641,0.83984 1.46094,1.14453 0.79297,0.60547 1.23828,0.92578 1.23828,0.92578 l 1.27344,0.91015 1.1875,-1.01171 c 0.0352,-0.0273 0.81641,-0.69141 2.13672,-1.92579 4.28515,-4.0039 15.22656,-14.94531 24.20703,-30.00781 7.24609,-12.14844 16.05859,-23.66015 26.19922,-34.21875 L 267,164.99219 c 0,0 -0.0625,-1.07422 -0.0664,-1.11328 -0.0742,-1.17188 -0.20312,-2.33594 -0.32812,-3.46875 -0.0469,-0.38282 -0.0859,-0.77735 -0.125,-1.19141 0.0859,0.39453 0.16016,0.79297 0.21875,1.1875 l 0.0469,0.35937 0.57813,3.90235 2.80469,-2.77344 c 1.10156,-1.08594 2.21484,-2.16016 3.33984,-3.22266 l 0.71875,-0.67578 -0.10156,-0.98437 c -0.0586,-0.54688 -0.11719,-1.09375 -0.19531,-1.66406 l -0.20704,-1.41016 c 0.0352,0.13281 0.0664,0.26172 0.0977,0.39453 l 0.76953,3.29297 2.92188,-2.62891 c 0.48437,-0.43359 0.96484,-0.87109 1.45312,-1.30078 l 0.82422,-0.71875 -0.16406,-1.08203 c -0.17578,-1.15234 -0.36328,-2.30078 -0.5586,-3.45312 -0.0937,-0.53516 -0.17968,-1.07032 -0.26171,-1.60547 0.1289,0.53125 0.25,1.0625 0.35546,1.58593 0.0352,0.1875 0.0664,0.375 0.10157,0.5625 l 0.69922,3.8125 2.6289,-2.19921 c 0.86328,-0.72657 1.73438,-1.44141 2.61328,-2.15235 l 1.09766,-0.88672 -0.008,-0.0156 2.28906,-1.77344 0.89062,-0.69922 0.54297,-0.41797 0.17578,-0.66406 c 0.66407,-2.55469 0.60547,-5.23828 -0.17578,-7.75781 -2.625,-8.48828 -11.63281,-37.695314 -17.35547,-57.19922 -2.00781,-6.84375 -3.42578,-11.867187 -4.21875,-14.925781 -0.1914,-0.742188 -0.35156,-1.386719 -0.47265,-1.917969 -0.98047,-4.234375 -5.12891,-10.164062 -8.44141,-14.390625 C 248.65625,33.96875 226.29297,12.523438 210.47656,8.1445313 l -0.53515,-0.1484375 -0.53125,0.1484375 c -15.81641,4.3789067 -38.1836,25.8242187 -49.01172,39.6523437 -3.3125,4.226563 -7.46485,10.15625 -8.44141,14.386719 -0.12109,0.53125 -0.28125,1.179687 -0.47656,1.921875 -0.79297,3.074219 -2.21485,8.097656 -4.21485,14.925781 -5.71875,19.488281 -14.73046,48.70703 -17.35937,57.19922 -0.77734,2.51953 -0.83594,5.20312 -0.17188,7.75781" /><path
               inkscape:connector-curvature="0"
               id="path62"
               style="fill:#ffffff;fill-opacity:1;fill-rule:nonzero;stroke:none"
               d="m 245.36719,109.34766 -1.375,-0.4336 c -0.14453,-0.0469 -1.48438,-0.44922 -3.41016,-0.44922 -3.65234,0 -10.27344,1.46875 -13.58594,11.3125 l -0.74218,2.20704 2.29687,0.39843 c 0.0586,0.0117 1.48828,0.25782 3.46094,0.25782 3.16016,0 7.53906,-0.625 10.46484,-3.60547 2,-2.03907 2.98047,-4.8125 2.91797,-8.25 l -0.0273,-1.4375 z m -49.84375,10.42968 0.74219,2.20704 -2.29297,0.39843 c -0.0625,0.0117 -1.49219,0.25782 -3.46094,0.25782 -3.16016,0 -7.54297,-0.625 -10.46484,-3.60547 -2,-2.03907 -2.98438,-4.8125 -2.91797,-8.25 l 0.0273,-1.4375 1.37109,-0.4336 c 0.14844,-0.0469 1.48829,-0.44922 3.41407,-0.44922 3.65234,0 10.27343,1.46875 13.58203,11.3125" /><path
               inkscape:connector-curvature="0"
               id="path64"
               style="fill:#9f4393;fill-opacity:1;fill-rule:nonzero;stroke:none"
               d="m 203.09766,19.613281 c 0,0 -21.69141,11.777344 -28.96875,20.761719 -1.97657,2.4375 -3.73438,4.988281 -5.25,7.414063 -4.06641,6.511718 -6.3711,12.105468 -6.3711,12.105468 0,0 5.10938,-5.636718 12.16797,-13.003906 8.47266,-8.84375 19.75781,-20.175781 28.42188,-27.277344 z m -15.8125,77.160157 c -1.21094,2.570312 13.59375,13.292972 13.89843,12.234372 0.30079,-1.05468 -1.51171,-12.082029 1.05469,-11.175779 1.04297,0.367188 2.50391,4.722659 3.875,9.773439 0.53125,1.95312 2.17969,2.92969 3.82813,2.92969 1.65234,0 3.30078,-0.97657 3.82812,-2.92969 1.375,-5.05078 2.83594,-9.406251 3.875,-9.773439 2.57031,-0.90625 0.75781,10.121099 1.0586,11.175779 0.30468,1.0586 15.10546,-9.66406 13.89843,-12.234372 -0.99609,-2.113282 -15.72265,-16.21875 -20.88672,-21.128907 -0.49609,-0.472656 -1.13671,-0.707031 -1.77343,-0.707031 -0.63672,0 -1.27344,0.234375 -1.76953,0.707031 -5.16407,4.910157 -19.89063,19.015625 -20.88672,21.128907 z M 325.64844,301.09375 c -1.71485,-4.46875 -13.40625,-1.45312 -16.89844,-6.5 -2.48437,-3.59766 -0.44531,-11.60156 -1.47266,-17.42187 -0.35937,-2.04688 -1.09375,-3.82422 -2.54687,-5.04297 l -1.04297,2.84375 -2.22656,6.08593 -7.21485,19.69141 c 6,0.10938 11.82422,1.42578 17.38672,3.26563 2.83594,0.97265 5.6211,2.07812 8.32422,3.34765 2.69531,1.27344 5.34766,2.64844 7.84766,4.27344 -5.55469,-2.11719 -11.14453,-4.00781 -16.81641,-5.46484 -5.65234,-1.46094 -11.42187,-2.53516 -17.14844,-2.53907 -1.69531,-0.0195 -3.33593,-0.16015 -4.94921,-0.35156 -0.0586,0.008 -0.11329,0.0234 -0.17188,0.0273 -0.13281,0.004 -0.26562,-0.004 -0.39062,-0.0312 -0.30079,-0.0625 -0.60547,-0.12109 -0.90625,-0.18359 -0.88282,-0.12109 -1.76172,-0.24609 -2.64063,-0.37891 -2.95312,-0.46484 -5.88672,-0.98046 -8.80469,-1.54296 -5.83984,-1.11719 -11.64843,-2.35157 -17.4414,-3.63282 -11.58203,-2.57031 -23.1211,-5.29687 -34.625,-8.16797 -4.66016,-1.15625 -9.3125,-2.33593 -13.96875,-3.51953 -6.60157,-1.67968 -13.19922,-3.3789 -19.79297,-5.11328 -3.45313,1.50781 -5.82813,4.9961 -7.23828,8.90235 -0.23438,0.64062 -0.4375,1.29687 -0.63282,1.95703 l 5.17188,0.96875 c 0,0 1.85937,-4.98047 8.36719,-5.27344 2.67187,-0.11719 7.69531,0.41797 14.125,1.8125 9.23047,2.00391 21.35547,5.77734 33.58984,11.92969 20.75781,10.4414 86.13281,18.30859 86.13281,18.30859 0,0 0,-7.78516 -4.01562,-18.25 z m -174.625,-8.87109 c -0.004,0.0195 -0.008,0.0351 -0.0156,0.0547 -0.27344,0.96485 -0.59765,1.91797 -0.84375,2.89844 l -0.55859,2.875 c 0.64062,-0.0391 1.27734,-0.0625 1.90234,-0.0117 0.0586,0.004 0.11719,0.0117 0.17578,0.0156 0.83985,-1.70313 1.7461,-3.42578 2.67969,-4.99219 -0.60937,-0.10156 -1.21875,-0.21875 -1.82422,-0.37109 -0.50781,-0.1211 -1.01172,-0.28907 -1.51562,-0.46875 z m -2.16407,12.03515 c 0.34375,-0.80859 0.73829,-1.71875 1.17188,-2.67968 -0.28906,-0.10938 -0.57031,-0.23047 -0.85547,-0.35547 -0.10156,1.01172 -0.25781,2.01562 -0.31641,3.03515 z m 25.08204,-16.375 c -2.31641,-0.39453 -4.64063,-0.73437 -6.97266,-1.05859 -2.34375,-0.28906 -4.69141,-0.54688 -7.05078,-0.70703 -1.17969,-0.0977 -2.36328,-0.10938 -3.53906,-0.29297 -0.58985,-0.0859 -1.17969,-0.24219 -1.76954,-0.41016 -0.0898,-0.0312 -0.17968,-0.0586 -0.26953,-0.0859 -0.33593,0.49218 -0.65625,0.99218 -0.94531,1.51953 -0.36328,0.66406 -0.75,1.3164 -1.0625,2.01172 0.24609,-0.008 0.4961,-0.0156 0.74219,-0.008 1.30469,0.043 2.58594,0.27344 3.86719,0.47266 0.79687,-0.94531 1.57812,-1.66406 2.3125,-2.03125 l 19.03906,3.5625 c 0.19141,-0.67578 0.40234,-1.34766 0.63281,-2.01563 -0.52734,-0.0508 -1.01953,-0.17968 -1.52734,-0.28125 -1.14063,-0.26562 -2.30469,-0.45312 -3.45703,-0.67578 z m -7.92188,-7.64453 c -1.67187,-0.24219 -3.34375,-0.49219 -5.01562,-0.73437 -0.23047,0.0937 -0.51563,0.21875 -0.75391,0.33984 -0.39844,0.1875 -0.78516,0.45313 -1.17969,0.67188 l -1.125,0.82031 c -0.21875,0.18359 -0.42969,0.3789 -0.64453,0.57422 0.96484,-0.0234 1.92578,0.0547 2.88672,0.10547 2.45703,0.16015 4.91016,0.39843 7.35156,0.77343 2.44532,0.34375 4.86719,0.92188 7.2461,1.63282 1.18359,0.38671 2.36328,0.76953 3.51562,1.26562 0.53516,0.1875 1.07031,0.41016 1.55469,0.75 0.46094,-1.03516 0.99609,-2.05078 1.61328,-3.03125 l -12.02734,-2.46484 z m -124.374999,-67.47656 1.976563,-3.12109 2.074219,-3.0586 c 0.71875,-0.99609 1.441406,-1.99609 2.1875,-2.97265 l 2.308593,-2.87891 2.394532,-2.80469 c 0.835937,-0.89844 1.617187,-1.84765 2.5625,-2.64844 0.980468,-0.76953 2.042968,-1.46093 3.371093,-1.88281 -0.292968,1.37891 -0.851562,2.48828 -1.488281,3.51953 -0.617187,1.05469 -1.398437,1.95703 -2.125,2.90625 l -2.117187,2.89844 -2.023438,2.96094 c -0.636719,1.01172 -1.296875,2.0039 -1.960937,2.99609 l -1.886719,3.03516 -1.792969,3.09375 -1.328125,2.37109 c 4.792969,-7.20703 11.527344,-15.60937 17.925781,-17.58984 0,0 -19.519531,32.41797 -24.035156,60.88672 1.667969,-4.16407 3.464844,-8.27735 5.421875,-12.3125 l 2.09375,-4.21485 2.230469,-4.14062 2.328125,-4.08594 c 0.804687,-1.34766 1.609375,-2.69141 2.441406,-4.01953 l 2.5625,-3.94141 2.648438,-3.8789 c 0.921875,-1.26563 1.785156,-2.57422 2.828125,-3.75391 1.066406,-1.14062 2.222656,-2.21484 3.667968,-3.06641 5.671875,-14.91015 11.277344,-31.16406 11.277344,-31.16406 -9.914062,-1.03125 -21.070312,6.81641 -21.070312,6.81641 8.652343,-17.71485 41.917968,-35.71485 42.101562,-35.81641 -1.171875,0.0937 -2.351562,0.21875 -3.539062,0.39453 -44.921875,6.65235 -53.535157,45.91016 -55.144532,63.03516 0.730469,-1.46875 1.476563,-2.92188 2.269532,-4.35156 z m 21.589844,140.46484 c 0,0 0,0.0352 0,0.0859 0,0 0,0.004 0,0.008 -0.01563,1.86328 0.238281,31.54297 30.972656,39.11719 -23.699218,-8.58984 -24.804687,-66.41797 -24.804687,-66.41797 l -14.042969,22.01953 c 0,0 -8.265625,-12.80859 -2.480469,-38.97656 5.785157,-26.16797 33.460938,-30.42578 33.460938,-30.42578 -9.914063,-16.9375 -35.914063,-17.35156 -35.914063,-17.35156 0,0 3.28125,-18.58985 9.890625,-35.00782 0.519532,-1.29687 1.050782,-2.64062 1.589844,-4.01171 -0.625,1.11328 -1.308594,2.17968 -1.988281,3.2539 l -2.378906,3.96875 -2.285157,4.01953 c -0.722656,1.36328 -1.476562,2.70703 -2.226562,4.05078 l -2.15625,4.08204 c -1.386719,2.75 -2.753906,5.5039 -4.085938,8.27734 -2.617187,5.56641 -5.035156,11.23047 -7.179687,16.99609 l -1.566406,4.33985 c -0.371094,1.10937 -0.765625,2.21093 -1.175782,3.30859 0.07031,1.08203 0.167969,2.14453 0.3125,3.19141 0,0 14.734375,-7.06641 32.476563,-3.71875 0,0 -13.21875,5.76172 -22.96875,18.16015 l -0.789063,2.10938 c -1.59375,4.60937 -2.667968,9.39453 -3.285156,14.23828 l -0.355469,3.64453 -0.210937,3.66016 -0.01563,3.27734 v 0.38672 c 0.05859,1.22266 0.121094,2.44531 0.152344,3.67187 l 0.316406,3.66407 0.519531,3.64843 c 0.230469,1.20704 0.53125,2.39454 0.617188,3.64844 0.148437,1.23828 0.191406,2.50781 -0.117188,3.9336 -0.113281,-0.10547 -0.207031,-0.22266 -0.3125,-0.33204 0.675781,1.83204 1.421875,3.64063 2.269531,5.40625 l 1.515625,2.94922 1.679688,2.875 c 0.07813,0.1211 0.160156,0.24219 0.238281,0.36328 0.542969,0.79688 1.101563,1.58204 1.535156,2.47266 0.550782,0.98438 1.019532,2.04297 1.226563,3.38672 -0.449219,-0.14063 -0.855469,-0.32813 -1.246094,-0.53516 -0.707031,-0.36718 -1.34375,-0.8164 -1.9375,-1.30468 -0.855469,-0.8125 -1.546875,-1.76563 -2.292969,-2.67188 l -2.039062,-2.87109 -1.835938,-3.01563 c -1.605468,-2.84765 -2.949218,-5.85156 -4.007812,-8.95312 4.457031,21.01953 14.984375,35.98047 20.964844,43.125 2.597656,3.10547 4.339843,4.74218 4.339843,4.74218 0,0 -5.285156,-18.96093 -0.378906,-30.48828 z M 317.70703,428.25 c 1.77735,-1.26953 3.53516,-2.5625 5.26563,-3.89453 10.11328,-7.78516 19.30078,-16.66797 26.71484,-26.74219 -9.78906,2.88672 -23.01172,5.82031 -32.21875,5.6875 z M 78.015625,407.12891 c -1.5,-1.64453 -2.957031,-3.31641 -4.355469,-5.03125 1.398438,1.71484 2.855469,3.38672 4.355469,5.03125 z M 358.63672,115.88281 c -0.6875,-0.38281 -1.37891,-0.76953 -2.08203,-1.15625 -1.4961,-0.82422 -3.02735,-1.66015 -4.59375,-2.5 -2.05469,-1.10156 -4.16797,-2.21484 -6.34375,-3.33984 -1.94141,-1 -3.92969,-2.00391 -5.96094,-3.01563 -0.004,0 -0.008,-0.004 -0.0117,-0.004 -8.30469,-4.11719 -17.35937,-8.269534 -26.99609,-12.195315 -2.41016,-0.980469 -4.85547,-1.949219 -7.33594,-2.898437 -4.95703,-1.898438 -10.05078,-3.726563 -15.26172,-5.449219 -2.60156,-0.859375 -5.23437,-1.695313 -7.89453,-2.503906 4.32031,14.535156 10.13281,33.574217 15.53125,51.027347 1.22266,3.94921 1.32031,8.16406 0.27344,12.17578 l -2.76563,2.12109 c -0.37109,0.28906 -0.73437,0.58594 -1.10547,0.875 7.54297,-2.97656 15.54688,-4.67578 24.00391,-4.67578 3.05078,0 6.14063,0.23047 9.18359,0.6875 27.89063,4.19531 48.06641,20.25391 58.35547,46.44141 2.28516,5.82422 3.81641,11.53515 4.83594,16.66797 2.41797,-40.41016 2.41797,-70.76172 2.41797,-70.76172 0,0 -12.99609,-9.60547 -34.25,-21.4961 z M 72.628906,400.79297 c 0.339844,0.42969 0.671875,0.86328 1.019532,1.28906 -0.347657,-0.42578 -0.679688,-0.85937 -1.019532,-1.28906" /><path
               inkscape:connector-curvature="0"
               id="path66"
               style="fill:#100f0d;fill-opacity:1;fill-rule:nonzero;stroke:none"
               d="m 283.53906,384.26953 c 0.15625,0.40625 0.51953,0.53125 -0.0937,1.94531 -1.21875,0.91797 -1.46484,0.55079 -1.92187,0.46094 -0.41016,-0.14453 -0.81641,-0.30859 -1.17578,-0.53125 -0.71094,-0.44531 -1.28125,-1.05859 -1.875,-1.64062 -1.16016,-1.19141 -2.25,-2.44922 -3.21485,-3.80078 -0.96875,-1.34766 -1.78906,-2.80079 -2.44922,-4.32032 l -0.46875,-1.14843 -0.39843,-1.17579 c -0.10938,-0.39843 -0.28516,-0.76953 -0.26172,-1.22265 0.0469,-0.46094 0.19922,-0.96094 0.71094,-1.57813 1.57421,0.23047 1.89843,0.87891 2.28125,1.53516 l 1.25781,1.875 c 0.84765,1.23047 1.72656,2.42578 2.62109,3.60156 0.89844,1.17188 1.84375,2.3086 2.8711,3.3711 l 0.77734,0.78906 c 0.26953,0.25 0.51953,0.52344 0.73828,0.83203 0.23828,0.28906 0.42188,0.64062 0.60156,1.00781 z M 176.86328,137.25781 c 0,0 1.44141,-5.64062 8.15625,-7.2539 l 4.79688,5.45312 c 1.14843,1.30859 2.80078,2.04688 4.54297,2.02734 0.0312,0 0.0625,0 0.0937,-0.004 2.75781,-0.0273 5.11718,-1.94531 5.75,-4.625 0.42578,-1.79297 1.38281,-3.47656 2.85546,-4.80078 l 3.13672,-2.81641 -2.14843,3.67969 c -2.1836,3.74609 0.50781,8.45312 4.84375,8.46875 h 2.01562 c 4.375,-0.0195 7.08984,-4.76953 4.88281,-8.54688 l -2.10156,-3.60156 3.14063,2.81641 c 3.76953,3.38281 4.17187,9.14453 0.91015,13.01562 l -7.79687,4.89844 v -0.004 l -7.53125,-4.72656 c -1.42578,-0.78125 -2.60157,-1.71875 -3.30078,-2.77344 0,0 -0.94922,8.3086 10.83203,10.1211 v 37.30859 c -0.008,-0.004 -33.23047,-16.46484 -34.58985,-40.48047 0,0 2.41797,6.64453 9.0625,7.09766 0,0 -0.30078,-10.26953 -7.55078,-15.25391 z m 16.76563,-16.84375 c 0,0 -14.72657,2.56641 -14.5,-9.59375 0,0 10.19531,-3.20703 14.5,9.59375 z m -6.34375,-23.640622 c 0.99609,-2.113282 15.72265,-16.21875 20.88672,-21.128907 0.49609,-0.472656 1.13281,-0.707031 1.76953,-0.707031 0.63672,0 1.27734,0.234375 1.77343,0.707031 5.16407,4.910157 19.89063,19.015625 20.88672,21.128907 1.20703,2.570312 -13.59375,13.292972 -13.89843,12.234372 -0.30079,-1.05468 1.51171,-12.082029 -1.0586,-11.175779 -1.03906,0.367188 -2.5,4.722659 -3.875,9.773439 -0.52734,1.95312 -2.17578,2.92969 -3.82812,2.92969 -1.64844,0 -3.29688,-0.97657 -3.82813,-2.92969 -1.37109,-5.05078 -2.83203,-9.406251 -3.875,-9.773439 -2.5664,-0.90625 -0.7539,10.121099 -1.05469,11.175779 -0.30468,1.0586 -15.10937,-9.66406 -13.89843,-12.234372 z m 56.10937,14.046872 c 0.22656,12.16016 -14.5039,9.59375 -14.5039,9.59375 4.30859,-12.80078 14.5039,-9.59375 14.5039,-9.59375 z m -35.75,88.89453 c 0.72266,0.29297 1.50781,0.42969 2.29688,0.42969 0.78906,0 1.57422,-0.13672 2.30078,-0.42969 30.32422,-12.15234 53.26953,-52.21484 40.90234,-86.84375 -2.74609,-7.6914 -6.29687,-14.285152 -10.17969,-19.910152 -4.41015,-5.21875 -9.11718,-10.457032 -13.55078,-15.242188 0.0742,0.03906 0.14844,0.07813 0.22266,0.113281 4.82812,2.449219 9.26953,5.046875 11.57031,7.277344 6.66016,6.460938 17.66016,27.730465 17.66016,27.730465 0,0 0,-0.25781 -0.19922,-2.85546 -0.11328,-1.49219 -0.29297,-3.75782 -0.57422,-7.21485 C 257.31641,93.320313 250.5,78.140625 250.5,78.140625 l 6.05859,3.714844 c 0,0 -0.83593,-2.660156 -2.125,-6 -1.59375,-4.140625 -3.87109,-9.328125 -6.10156,-11.816406 -0.78906,-0.878907 -2.14062,-2.152344 -3.79297,-3.625 -6.76562,-6.023438 -18.66797,-15.429688 -18.66797,-15.429688 0,0 0,0 8.05469,2.636719 8.05469,2.632812 17.66016,12.273437 17.66016,12.273437 0,0 -0.15625,-0.964843 -5.73438,-9.023437 -0.84375,-1.21875 -2.26562,-2.75 -4.05859,-4.457031 C 231.76563,36.863281 209.94141,21.59375 209.94141,21.59375 V 64.75 c 0,0 -5.05078,2.027344 -11.90235,6.863281 h -0.004 c -9.94532,7.023438 -23.69141,19.972657 -31.29297,41.257809 -12.36719,34.62891 10.57812,74.69141 40.90234,86.84375 z m 115.32813,224.64063 c -1.73047,1.33203 -3.48828,2.625 -5.26563,3.89453 l -0.23828,-24.94922 c 9.20703,0.13281 22.42969,-2.80078 32.21875,-5.6875 -7.41406,10.07422 -16.60156,18.95703 -26.71484,26.74219 z m -223.175785,2.17187 c -0.394531,-0.28906 -0.78125,-0.58984 -1.175781,-0.88281 -1.53125,-1.15234 -3.054688,-2.32422 -4.546875,-3.52344 -0.328125,-0.26171 -0.648438,-0.53515 -0.972656,-0.80078 -0.605469,-0.49218 -1.214844,-0.98437 -1.8125,-1.48828 -0.296875,-0.25 -0.582032,-0.50781 -0.875,-0.75781 -0.621094,-0.53125 -1.242188,-1.05469 -1.851563,-1.59375 -0.289062,-0.25781 -0.574219,-0.52344 -0.859375,-0.78125 -0.605469,-0.53906 -1.210937,-1.07813 -1.804687,-1.62891 -0.289063,-0.27343 -0.570313,-0.55078 -0.863282,-0.82031 -0.578125,-0.55078 -1.164062,-1.09375 -1.734375,-1.65234 -0.05859,-0.0586 -0.117187,-0.11719 -0.175781,-0.17578 -0.792969,-0.77735 -1.578125,-1.5625 -2.347656,-2.35547 -0.328125,-0.33594 -0.644531,-0.6836 -0.96875,-1.02344 -0.496094,-0.52344 -1,-1.03906 -1.484375,-1.57031 -0.105469,-0.11328 -0.207031,-0.23047 -0.308594,-0.34375 -1.5,-1.64453 -2.957031,-3.31641 -4.355469,-5.03125 -0.0039,-0.004 -0.0078,-0.0117 -0.01172,-0.0156 -0.347657,-0.42578 -0.679688,-0.85937 -1.019532,-1.28906 11.660157,3.01562 22.210938,-0.10547 29.789066,2.50781 L 102.17969,428.25 c -0.53125,-0.37891 -1.0586,-0.76172 -1.58203,-1.14453 -0.26563,-0.19141 -0.53516,-0.38281 -0.800785,-0.57813 z M 38.308594,335.84766 c 1.058594,3.10156 2.402344,6.10547 4.007812,8.95312 l 1.835938,3.01563 2.039062,2.87109 c 0.746094,0.90625 1.4375,1.85938 2.292969,2.67188 0.59375,0.48828 1.230469,0.9375 1.9375,1.30468 0.390625,0.20703 0.796875,0.39453 1.246094,0.53516 -0.207031,-1.34375 -0.675781,-2.40234 -1.226563,-3.38672 -0.433593,-0.89062 -0.992187,-1.67578 -1.535156,-2.47266 -0.07813,-0.12109 -0.160156,-0.24218 -0.238281,-0.36328 l -1.679688,-2.875 -1.515625,-2.94922 c -0.847656,-1.76562 -1.59375,-3.57421 -2.269531,-5.40625 0.105469,0.10938 0.199219,0.22657 0.3125,0.33204 0.308594,-1.42579 0.265625,-2.69532 0.117188,-3.9336 -0.08594,-1.2539 -0.386719,-2.4414 -0.617188,-3.64844 l -0.519531,-3.64843 -0.316406,-3.66407 c -0.03125,-1.22656 -0.09375,-2.44921 -0.152344,-3.67187 V 319.125 l 0.01563,-3.27734 0.210937,-3.66016 0.355469,-3.64453 c 0.617188,-4.84375 1.691406,-9.62891 3.285156,-14.23828 l 0.789063,-2.10938 c 9.75,-12.39843 22.96875,-18.16015 22.96875,-18.16015 -17.742188,-3.34766 -32.476563,3.71875 -32.476563,3.71875 -0.144531,-1.04688 -0.242187,-2.10938 -0.3125,-3.19141 0.410157,-1.09766 0.804688,-2.19922 1.175782,-3.30859 l 1.566406,-4.33985 c 2.144531,-5.76562 4.5625,-11.42968 7.179687,-16.99609 1.332032,-2.77344 2.699219,-5.52734 4.085938,-8.27734 l 2.15625,-4.08204 c 0.75,-1.34375 1.503906,-2.6875 2.226562,-4.05078 l 2.285157,-4.01953 2.378906,-3.96875 c 0.679687,-1.07422 1.363281,-2.14062 1.988281,-3.2539 0.886719,-1.58985 1.644531,-3.28125 2.050781,-5.23829 -0.01563,0.0117 -0.03125,0.0234 -0.04687,0.0312 -1.445312,0.85157 -2.601562,1.92579 -3.667968,3.06641 -1.042969,1.17969 -1.90625,2.48828 -2.828125,3.75391 l -2.648438,3.8789 -2.5625,3.94141 c -0.832031,1.32812 -1.636719,2.67187 -2.441406,4.01953 l -2.328125,4.08594 -2.230469,4.14062 -2.09375,4.21485 c -1.957031,4.03515 -3.753906,8.14843 -5.421875,12.3125 4.515625,-28.46875 24.035156,-60.88672 24.035156,-60.88672 -6.398437,1.98047 -13.132812,10.38281 -17.925781,17.58984 l 1.328125,-2.37109 1.792969,-3.09375 1.886719,-3.03516 c 0.664062,-0.99219 1.324218,-1.98437 1.960937,-2.99609 l 2.023438,-2.96094 2.117187,-2.89844 c 0.726563,-0.94922 1.507813,-1.85156 2.125,-2.90625 0.636719,-1.03125 1.195313,-2.14062 1.488281,-3.51953 -1.328125,0.42188 -2.390625,1.11328 -3.371093,1.88281 -0.945313,0.80079 -1.726563,1.75 -2.5625,2.64844 l -2.394532,2.80469 -2.308593,2.87891 c -0.746094,0.97656 -1.46875,1.97656 -2.1875,2.97265 l -2.074219,3.0586 -1.976563,3.12109 -1.839843,3.21094 c -0.792969,1.42968 -1.539063,2.88281 -2.269532,4.35156 1.609375,-17.125 10.222657,-56.38281 55.144532,-63.03516 40.222652,-5.95703 71.476562,37.67969 86.746092,64.71875 4.62891,8.20313 11.9375,14.38672 20.51172,17.71875 v 39.50782 c -3.15234,-0.83985 -6.30078,-1.67188 -9.44922,-2.51954 -0.3789,-0.10546 -0.79297,-0.0976 -1.1914,0.0508 l -0.0195,0.004 c -1.86718,0.67969 -3.5625,1.78906 -4.98437,3.13281 -1.42188,-0.74218 -2.92969,-0.90625 -4.39844,-1.3125 -2.07031,-0.48046 -4.14844,-0.91406 -6.23437,-1.28515 -4.17188,-0.72656 -8.36719,-1.3125 -12.55469,-1.94141 l -0.0703,-0.0117 c -0.23829,-0.0351 -0.49219,-0.0195 -0.74219,0.0547 -0.81641,0.23828 -1.28906,0.47266 -1.875,0.75391 -0.5625,0.26953 -1.0586,0.60156 -1.58984,0.90234 l -1.45313,1.05078 c -0.45313,0.37891 -0.88281,0.78516 -1.32422,1.17969 -0.32422,0.3125 -0.625,0.64062 -0.92969,0.96875 -0.34765,-0.16797 -0.69531,-0.32031 -1.04687,-0.42969 3.36719,-7.20703 7.80078,-12.53906 7.80078,-12.53906 l -10.53516,2.16797 c 0,0 0,0 -0.64843,-12.39453 -0.53907,-10.3125 -8.84375,-27.48828 -11.61719,-32.96094 -0.0273,-1.98438 -0.0898,-3.97656 -0.22656,-6.00391 -0.0391,-0.73828 -0.13282,-1.51953 -0.21094,-2.29297 -0.10938,-0.78515 -0.26953,-1.73046 -0.53125,-2.44531 -0.23047,-0.76562 -0.47656,-1.53125 -0.80078,-2.22656 -0.30469,-0.71484 -0.60547,-1.43359 -0.96094,-2.10156 -1.36719,-2.72657 -2.89453,-5.29688 -4.61328,-7.72266 -0.51172,-0.73437 -1.04688,-1.44922 -1.57422,-2.16797 -1.21484,-1.66797 -2.45703,-3.3164 -3.74219,-4.92187 -0.92968,-1.14453 -1.91797,-2.23828 -3,-3.25391 -1.0664,-1.02734 -2.20703,-1.99219 -3.51562,-2.80469 1.78906,4.26563 4.42187,7.80078 6.83984,11.46094 0.75391,1.14844 1.49219,2.30859 2.17188,3.50391 1.46093,2.47265 2.875,4.96093 4,7.51172 0.30859,0.63281 0.53906,1.27343 0.78125,1.91406 0.26562,0.64062 0.4375,1.27344 0.625,1.90234 0.22656,0.66797 0.28125,1.17578 0.36718,1.83203 0.0352,0.39453 0.0703,0.78907 0.10157,1.1875 -0.83985,-1.74218 -1.85547,-3.39843 -3.01563,-4.93359 l -1.06641,-1.33594 -1.14453,-1.26562 c -0.41015,-0.39453 -0.76171,-0.83985 -1.27734,-1.13672 -0.53906,-0.27735 -1.16016,-0.47656 -2.03516,-0.39453 -0.26953,1.73828 0.35157,2.53125 0.94922,3.39843 0.55469,0.89063 1.08594,1.78516 1.59766,2.6875 1.01172,1.8125 1.89062,3.67579 2.71094,5.5625 0.77734,1.90235 1.44921,3.84766 1.93359,5.84375 l 0.33594,1.50391 c 0.0898,0.50391 0.20703,1.00391 0.36718,1.5 0.12891,0.5 0.33594,0.99609 0.5625,1.49219 0.10547,0.20703 0.15625,0.41406 0.28125,0.61719 -0.0156,1.5625 -0.0352,3.125 -0.0586,4.68359 -0.0156,0.9375 -0.043,1.87109 -0.0625,2.80469 -13.58203,-3.48047 -31.85547,1.87109 -31.85547,1.87109 8.80469,3.71875 30.26563,37.01953 30.26563,37.01953 -20.85156,-0.42578 -45.449221,40.71094 -45.449221,40.71094 0,0 0,0 17.972661,-3.47266 13.86328,-2.67968 22.66406,-1.22656 25.97656,-0.42187 -0.0859,1.67578 -0.16797,3.35156 -0.25,5.02734 -1.02735,-0.1289 -2.05469,-0.23437 -3.08203,-0.30469 -3.39453,-0.25 -6.8086,-0.125 -10.17578,0.28125 -3.36719,0.41016 -6.69532,1.1211 -9.92188,2.16016 -3.22266,1.01172 -6.34375,2.58594 -8.6875,5.17188 3.41406,-0.60157 6.42188,-1.53516 9.50781,-2.39844 3.08594,-0.83594 6.25,-1.36328 9.4336,-1.60156 2.65625,-0.20704 5.32422,-0.17969 7.97656,-0.004 -1.04297,0.28906 -2.07813,0.59766 -3.10547,0.93359 -4.64844,1.51953 -9.11328,3.58594 -13.32031,6.07813 -4.19141,2.5039 -8.167971,5.41015 -11.67969,8.8164 -0.863281,0.86329 -1.699219,1.75391 -2.53125,2.64454 -0.777344,0.94921 -1.546875,1.89453 -2.292969,2.85937 -0.703125,0.99609 -1.382812,2.01172 -2.054687,3.01953 -0.582031,1.07813 -1.039063,2.25391 -1.011719,3.70313 1.410156,-0.47266 2.34375,-1.21875 3.148438,-2.06641 0.820312,-0.83203 1.636718,-1.66016 2.425781,-2.5 0.851562,-0.79297 1.675781,-1.59766 2.496094,-2.40625 0.859375,-0.76953 1.710937,-1.54297 2.535156,-2.33984 3.429686,-3.0586 7.101566,-5.85938 11.066406,-8.19141 1.19141,-0.70703 2.41406,-1.36328 3.64844,-1.98828 -0.83594,0.77344 -1.63672,1.57812 -2.40235,2.41797 -1.4414,1.58984 -2.7539,3.29687 -3.90625,5.09375 -1.17968,1.76172 -2.27734,3.67187 -1.98047,6.14844 2.15626,-1.19922 3.19922,-2.81641 4.42188,-4.39454 1.24609,-1.54687 2.58984,-3.0039 4.01563,-4.36328 2.85546,-2.71484 6.0664,-5.01562 9.5,-6.86718 3.45312,-1.82032 7.17578,-3.14844 11.01171,-3.89063 0.26954,-0.0547 0.54297,-0.0977 0.8125,-0.14453 l 8.41016,-0.0977 c 4.07031,-0.0547 8.13281,0.23438 12.16406,0.80469 4.02735,0.57031 8.01563,1.46484 11.90625,2.67188 l 10.63672,3.44921 c 0.12891,0.21094 0.30078,0.40235 0.51172,0.55469 l 0.0195,0.0156 c 10.13281,7.34375 20.42578,14.47656 30.92188,21.3164 1.40234,0.91016 2.78906,1.83594 4.19531,2.73438 10.46094,6.68359 21.125,13.08203 32.12891,18.89453 0.45703,0.41797 0.91406,0.83594 1.375,1.24609 1.17968,1.02735 2.34765,2.07422 3.66406,2.9375 0.64844,0.4375 1.35156,0.80469 2.0664,1.15235 0.72657,0.28515 1.27735,0.82812 2.67188,0.17968 0.33203,0.3125 0.67187,0.61719 1.04297,0.89063 0.45703,0.33203 0.96094,0.60547 1.46875,0.86328 -1.54688,0.67969 -3.00391,1.49219 -4.57031,2.14063 -2.8086,1.39843 -5.76172,2.49609 -8.62891,3.75 -5.82031,2.32812 -11.76563,4.34765 -17.8125,6.05859 -5.78906,1.57422 -11.67188,2.81641 -17.60156,3.83203 -0.28125,0.0469 -0.5586,0.10156 -0.84375,0.14844 -6.22266,1 -12.4961,1.6914 -18.78907,2.17578 -12.59765,0.86719 -25.26953,0.99219 -37.91406,0.30859 -6.32422,-0.3125 -12.64453,-0.80078 -18.94531,-1.48437 -2.16016,-0.25 -6.47656,-0.75391 -6.47656,-0.75391 -4.13672,-0.45312 -8.29688,-0.80469 -12.56641,-0.74219 4.02344,1.75782 8.21875,2.77735 12.45703,3.52344 2.07031,0.36328 4.14453,0.66406 6.21875,0.94531 0.49609,0.0664 0.98828,0.12891 1.48438,0.19141 -3.17188,-0.0391 -5.8086,-0.0781 -7.74219,-0.10937 -2.30859,-0.0352 -3.60938,-0.0625 -3.60938,-0.0625 0,0 1.26172,0.52343 3.55469,1.42578 6.49219,2.55468 21.29297,8.15625 39.59375,13.70312 11.54688,3.4961 22.78906,5.52735 33.57422,6.46485 v 29.23437 c -4.50781,-0.30469 -9.00391,-0.75 -13.48047,-1.34375 -9.03515,-1.18359 -17.96094,-3.14453 -26.72266,-5.63672 -8.75781,-2.52344 -17.32812,-5.71875 -25.57031,-9.62109 -2.8789,-1.36328 -5.69922,-2.83594 -8.5,-4.34375 -1.21484,-0.65235 -2.42578,-1.3086 -3.63672,-1.96875 -2.96875,-1.64063 -5.92968,-3.32031 -8.88671,-5.03516 l 0.30078,-31.39453 c -49.953129,2.09766 -50.226566,-38.68359 -50.207035,-40.80469 0,-0.008 0,-0.004 0,-0.008 0,-0.0508 0,-0.0859 0,-0.0859 -4.90625,11.52735 0.378906,30.48828 0.378906,30.48828 0,0 -1.742187,-1.63671 -4.339843,-4.74218 -5.980469,-7.14453 -16.507813,-22.10547 -20.964844,-43.125 z M 27,137.37891 c 0,0 1.070313,-0.78907 3.097656,-2.19922 11.574219,-8.04297 54.375,-36.226565 107.628904,-52.355471 -4.3164,14.53125 -10.13281,33.570311 -15.52734,51.023441 -1.22266,3.95312 -1.32031,8.16406 -0.27344,12.17578 l 3.9375,3.02343 c -7.55859,-2.99609 -15.58984,-4.70312 -24.07031,-4.70312 -3.054689,0 -6.140626,0.23047 -9.187501,0.6875 -27.886719,4.19531 -48.066406,20.25391 -58.351563,46.44141 -2.285156,5.82422 -3.816406,11.53515 -4.839843,16.67187 C 27.046875,168.49609 27,138.53516 27,137.41016 c 0,-0.0195 0,-0.0312 0,-0.0312 z M 153.90625,62.636719 c 0.73047,-3.171875 3.72266,-8.0625 8.06641,-13.605469 11.78515,-15.050781 33.61718,-34.988281 47.96875,-38.960939 14.35156,3.972658 36.1875,23.910158 47.97265,38.960939 4.34375,5.542969 7.33203,10.433594 8.06641,13.605469 0.125,0.542969 0.28906,1.210937 0.48828,1.972656 0.86328,3.339844 2.37891,8.664063 4.23438,14.984375 5.64062,19.230469 14.39453,47.63281 17.36328,57.22656 0.67187,2.16797 0.71875,4.46875 0.14843,6.66406 -0.30078,0.23438 -0.59375,0.47266 -0.89453,0.70313 -0.23047,-0.76563 -0.47265,-1.53125 -0.70703,-2.29688 -0.67578,-2.14843 -1.39062,-4.28515 -2.1289,-6.41015 -0.37891,-1.08594 -0.75,-2.17188 -1.15235,-3.25 -1.14844,-3.20313 -2.45703,-6.34375 -3.86328,-9.44531 -0.70703,-1.54688 -1.44141,-3.08203 -2.19922,-4.60157 -0.39453,-0.7539 -0.71875,-1.53906 -1.24219,-2.23437 -0.53906,-0.69141 -1.17968,-1.33594 -2.16796,-1.82031 -0.57422,2.10547 0.0469,3.65625 0.63671,5.23046 l 1.66797,4.75782 3.33594,9.48828 c 0.89063,2.58203 1.76953,5.16406 2.61719,7.76172 0.1914,0.58984 0.39062,1.17578 0.57812,1.76562 0.41016,1.25391 0.77344,2.51563 1.21094,3.76172 -0.88672,0.71484 -1.76562,1.4375 -2.64062,2.16797 -0.0625,-0.34375 -0.11719,-0.6875 -0.1836,-1.03125 -0.33203,-1.64844 -0.77344,-3.27734 -1.30859,-4.875 -0.0117,-0.0352 -0.0195,-0.0703 -0.0352,-0.10938 -0.27734,-0.8164 -0.57812,-1.62109 -0.90234,-2.42187 -0.17969,-0.39453 -0.28125,-0.80859 -0.59375,-1.16406 -0.32422,-0.35157 -0.75781,-0.67188 -1.55469,-0.8711 -1.08203,1.19922 -0.90625,2 -0.75781,2.82032 l 0.34765,2.47656 c 0.0859,0.58203 0.1875,1.15234 0.27735,1.73437 0.16015,1.05469 0.3164,2.11328 0.5,3.16016 0.19531,1.13672 0.3789,2.27344 0.55078,3.41406 -0.62891,0.55469 -1.25391,1.11719 -1.87891,1.67969 -0.23828,-1.01563 -0.55078,-2.01563 -0.9414,-2.98047 -0.26953,-0.66016 -0.57032,-1.30859 -0.90625,-1.9375 -0.17188,-0.29297 -0.28516,-0.60937 -0.56641,-0.85937 -0.0156,-0.0117 -0.0234,-0.0273 -0.0391,-0.0391 -0.33203,-0.24609 -0.76563,-0.44922 -1.54297,-0.48437 -0.96094,1.08984 -0.85156,1.67969 -0.71484,2.27734 0.008,0.0352 0.0156,0.0703 0.0234,0.10547 l 0.32032,1.91016 0.55078,3.77343 c 0.0742,0.52344 0.13281,1.05079 0.1875,1.57813 -1.13672,1.07031 -2.26172,2.15625 -3.375,3.25391 -0.0195,-0.125 -0.0274,-0.25 -0.0469,-0.375 -0.18359,-1.21094 -0.48047,-2.40625 -0.875,-3.57032 -0.19922,-0.57812 -0.42187,-1.15234 -0.67187,-1.71484 -0.13672,-0.27734 -0.19922,-0.57813 -0.47266,-0.81641 -0.10156,-0.0859 -0.22656,-0.16015 -0.375,-0.23437 -0.25781,-0.12891 -0.59375,-0.23438 -1.0625,-0.29688 -1.17187,0.9375 -1.07812,1.48828 -1.01172,2.0625 0.004,0.0508 0.008,0.10547 0.008,0.15625 0.0274,0.52735 0.0586,1.05078 0.0977,1.56641 0.082,1.14062 0.17578,2.26953 0.30469,3.39062 0.125,1.11719 0.24609,2.23829 0.32031,3.36329 0.008,0.0977 0.0117,0.1914 0.0195,0.28515 -10.07422,10.48828 -19,22.04688 -26.47265,34.57813 -8.80469,14.76562 -19.45704,25.46094 -23.85938,29.57422 -1.30078,1.21484 -2.0625,1.86328 -2.0625,1.86328 0,0 -0.42969,-0.3086 -1.1875,-0.89063 -0.39453,-0.29687 -0.87109,-0.67187 -1.43359,-1.11718 -5.63282,-4.48047 -19.21485,-16.1875 -29.33203,-32.21485 -9.31641,-14.76172 -20.72657,-28.05078 -33.59766,-39.80469 -0.35156,-1.47265 -0.67578,-2.94921 -0.96094,-4.43359 -0.40625,-2.28516 -0.8125,-4.57031 -1.15234,-6.87891 l -0.48438,-3.47656 c -0.11328,-1.16797 -0.17578,-2.31641 -1.55078,-3.51562 -0.70703,0.58984 -1.03125,1.19531 -1.24609,1.80468 -0.1875,0.60547 -0.16016,1.21485 -0.21094,1.82422 l -0.0625,1.82813 0.008,1.83203 c 0.0469,2.17578 0.22656,4.35547 0.56641,6.51172 -1.03125,-0.88672 -2.07422,-1.76172 -3.1211,-2.62891 -0.17968,-0.99609 -0.33203,-1.99219 -0.4375,-2.99609 -0.26562,-2.92969 -0.28125,-5.88672 0.0352,-8.83203 l 0.29688,-2.20313 0.41015,-2.19531 c 0.17188,-0.72266 0.41797,-1.42578 0.45703,-2.20313 0.082,-0.76953 0.0625,-1.58203 -0.29297,-2.58984 -0.93749,0.43359 -1.54296,1.05859 -2.04687,1.72656 -0.44922,0.69531 -0.69141,1.46875 -1.00391,2.21875 l -0.75781,2.31641 -0.57812,2.375 c -0.58985,2.85937 -0.79688,5.80469 -0.62891,8.73047 -0.57422,-0.44922 -1.14453,-0.90235 -1.72266,-1.34766 l -0.85547,-0.66016 c -0.57421,-2.19531 -0.52343,-4.49609 0.14454,-6.66406 2.96875,-9.59375 11.72656,-37.996091 17.36718,-57.22656 1.85157,-6.316406 3.3711,-11.644531 4.23438,-14.984375 0.19531,-0.761719 0.36328,-1.429687 0.48828,-1.972656 z m 2.58203,259.605471 c -2.30469,-0.37891 -4.63672,-0.63281 -6.97266,-0.79297 l -0.32031,-3.26563 c 0.11719,0.0703 0.22656,0.15235 0.34766,0.21485 1.33984,0.76953 2.79687,1.30078 4.24609,1.8125 2.91406,1 5.91406,1.76562 8.97266,2.17969 1.51953,0.21875 3.07422,0.36328 4.58594,0.40625 l 4.36718,0.11718 c 1.40625,0.0703 2.75782,0.20703 4.06641,0.51563 0.46484,0.10547 0.91016,0.25 1.37109,0.375 0.17188,1.51562 0.37891,3.03515 0.60938,4.55469 l -8.87891,-3.07422 c -4.03906,-1.33985 -8.1875,-2.35938 -12.39453,-3.04297 z M 177.375,294.75391 c -1.26172,-0.5 -2.53125,-0.97657 -3.81641,-1.42188 -2.64843,-0.90625 -5.33984,-1.70312 -8.07422,-2.32031 -2.72265,-0.65625 -5.47656,-1.17969 -8.24218,-1.64063 -0.0977,-0.0156 -0.19922,-0.0312 -0.30078,-0.0469 -1.28125,-0.19922 -2.5625,-0.42969 -3.86719,-0.47266 -0.24609,-0.008 -0.4961,0 -0.74219,0.008 0.3125,-0.69532 0.69922,-1.34766 1.0625,-2.01172 0.28906,-0.52735 0.60938,-1.02735 0.94531,-1.51953 0.0898,0.0273 0.17969,0.0547 0.26953,0.0859 0.58985,0.16797 1.17969,0.32422 1.76954,0.41016 1.17578,0.18359 2.35937,0.19531 3.53906,0.29297 2.35937,0.16015 4.70703,0.41797 7.05078,0.70703 2.33203,0.32422 4.65625,0.66406 6.97266,1.05859 1.15234,0.22266 2.3164,0.41016 3.45703,0.67578 0.50781,0.10157 1,0.23047 1.52734,0.28125 -0.23047,0.66797 -0.4414,1.33985 -0.63281,2.01563 -0.36719,1.29297 -0.67188,2.59375 -0.91797,3.89844 z m -1.07812,17.69922 c -0.17579,-0.043 -0.35547,-0.082 -0.53125,-0.1211 -1.44532,-0.36328 -2.89454,-0.71094 -4.34375,-1.04297 -2.90235,-0.65625 -5.8086,-1.27343 -8.73829,-1.78515 -2.91406,-0.55078 -5.85937,-1.05078 -8.76562,-1.55469 -0.48828,-0.082 -0.94531,-0.1875 -1.40625,-0.28906 -0.88672,-0.19141 -1.74219,-0.39844 -2.53906,-0.61328 -0.40235,-0.11329 -0.79688,-0.22266 -1.1875,-0.34375 l 0.0742,-2.4336 c 0,-0.004 0,-0.008 0,-0.0117 0.0586,-1.01953 0.21485,-2.02343 0.31641,-3.03515 0.28516,0.125 0.56641,0.24609 0.85547,0.35547 0.26172,0.10156 0.52344,0.19531 0.78516,0.27343 1.24609,0.37891 2.53125,0.54688 3.80468,0.76953 2.55469,0.41407 5.11328,0.78516 7.6875,1.05469 2.57032,0.30469 5.15625,0.44922 7.74219,0.50391 1.29688,0.0234 2.58985,0.0195 3.88281,-0.0117 0.64844,-0.0312 1.29297,0.0156 1.94532,-0.15625 0.15625,-0.0469 0.3164,-0.0977 0.47656,-0.16016 -0.10938,2.19532 -0.14453,4.39063 -0.11328,6.57813 0.0117,0.67578 0.0312,1.34765 0.0547,2.02344 z m -27.25001,1.82421 c -0.0508,-0.008 -0.0977,-0.0195 -0.14453,-0.0312 -0.0508,-1.16796 -0.0898,-2.33984 -0.14843,-3.5039 1.48046,0.69531 3.00781,0.97265 4.43359,1.25 2.94922,0.52344 5.85937,1.04687 8.79687,1.52344 2.92579,0.51171 5.8711,0.91796 8.82422,1.28515 1.47657,0.17969 2.95704,0.34375 4.4375,0.4961 0.39454,0.0469 0.78907,0.0976 1.1875,0.12109 0.0312,0.52734 0.0508,1.05469 0.0859,1.57812 0.0859,1.21094 0.1836,2.41407 0.29688,3.61329 -0.0391,-0.0117 -0.0742,-0.0274 -0.11328,-0.043 -1.50782,-0.60157 -3.08985,-0.96094 -4.6211,-1.19532 -1.53515,-0.23828 -3.04297,-0.35546 -4.48437,-0.49218 -1.4375,-0.13672 -2.82813,-0.30469 -4.23438,-0.51953 -2.79297,-0.44922 -5.55469,-1.1211 -8.23437,-2.03516 -1.34766,-0.44141 -2.64454,-1.01172 -3.9961,-1.45703 -0.67578,-0.22656 -1.375,-0.41016 -2.08594,-0.58985 z m 7.51563,-20.85156 c 2.6875,0.45703 5.35937,0.9961 8.02734,1.5586 l 7.9961,1.77343 4.0039,0.91407 c 0.10157,0.0234 0.20313,0.0508 0.30079,0.0742 -0.17579,1.33204 -0.3086,2.66016 -0.41407,3.98438 -0.78125,-0.39844 -1.57422,-0.47656 -2.37109,-0.56641 l -3.77734,-0.53515 c -2.51563,-0.34375 -5.02344,-0.69922 -7.53907,-1 -2.50781,-0.33594 -5.01562,-0.66797 -7.51953,-1.06641 -1.19141,-0.17578 -2.375,-0.41797 -3.58594,-0.50781 -0.0586,-0.004 -0.11718,-0.0117 -0.17578,-0.0156 -0.625,-0.0508 -1.26172,-0.0273 -1.90234,0.0117 l 0.55859,-2.875 c 0.2461,-0.98047 0.57031,-1.93359 0.84375,-2.89844 0.008,-0.0195 0.0117,-0.0351 0.0156,-0.0547 0.5039,0.17968 1.00781,0.34765 1.51562,0.46875 0.60547,0.15234 1.21485,0.26953 1.82422,0.37109 0.73438,0.125 1.46875,0.23438 2.19922,0.36328 z m 24.90625,-10.01953 c -0.61719,0.98047 -1.15234,1.99609 -1.61328,3.03125 -0.48438,-0.33984 -1.01953,-0.5625 -1.55469,-0.75 -1.15234,-0.49609 -2.33203,-0.87891 -3.51562,-1.26562 -2.37891,-0.71094 -4.80078,-1.28907 -7.2461,-1.63282 -2.4414,-0.375 -4.89453,-0.61328 -7.35156,-0.77343 -0.96094,-0.0508 -1.92188,-0.12891 -2.88672,-0.10547 0.21484,-0.19532 0.42578,-0.39063 0.64453,-0.57422 l 1.125,-0.82031 c 0.39453,-0.21875 0.78125,-0.48438 1.17969,-0.67188 0.23828,-0.12109 0.52344,-0.24609 0.75391,-0.33984 1.67187,0.24218 3.34375,0.49218 5.01562,0.73437 2.35156,0.34375 4.70703,0.67578 7.06641,0.96485 2.10547,0.24609 4.21875,0.42968 6.33984,0.57031 1.02735,0.0234 2.03906,0.16015 3.07031,0.15625 -0.36328,0.48047 -0.71093,0.97265 -1.02734,1.47656 z m -30.9375,0.20313 c -0.0352,0.0586 -0.0703,0.12109 -0.10547,0.17968 0.0195,-0.0625 0.043,-0.12109 0.0664,-0.18359 0.0156,0 0.0273,0.004 0.0391,0.004 z m 59.41016,174.34765 c 1.25781,0.0234 2.51562,0.0391 3.77343,0.0391 18.57422,-0.0195 37.21485,-2.41015 55.09375,-7.66796 8.82422,-2.625 17.48438,-5.87891 25.71485,-10.04297 0.0937,-0.0469 0.1914,-0.0899 0.28515,-0.14063 1.22657,-0.625 2.44141,-1.28125 3.64844,-1.94922 -0.0351,0.25391 -0.0625,0.50782 -0.0976,0.76172 -1.15235,0.72266 -2.42579,1.49219 -3.79688,2.30078 0,0 -39.25781,25.26172 -84.62109,25.26172 -45.35938,0 -84.61719,-25.26172 -84.61719,-25.26172 -7.93359,-4.66406 -12.26172,-8.09375 -12.26172,-8.09375 l 0.0625,-6.35937 c 0.65625,0.58984 1.32422,1.16797 2.00391,1.72265 1.79687,1.48047 3.67968,2.85157 5.61328,4.14063 1.5664,1.04687 3.17187,2.01953 4.80078,2.96484 2.39062,1.38672 4.83594,2.6875 7.30859,3.92578 8.32031,4.14454 16.98828,7.57813 25.86719,10.33204 16.57813,5.07812 33.89063,7.73437 51.22266,8.0664 z m 92.98047,-22.36719 c 0.17578,-0.10546 0.35156,-0.21093 0.52734,-0.32031 l -0.0625,0.38672 c -0.16797,0.11719 -0.32031,0.22266 -0.50391,0.34766 0.0156,-0.13672 0.0234,-0.27344 0.0391,-0.41407 z m -79.60547,-10.95703 c 29.8164,-1.55078 54.50781,-10.5664 69.90625,-17.8125 5.83984,-2.75 10.33984,-5.24218 13.27734,-6.97265 l 0.0977,9.98828 -0.6211,-2.29688 c -0.28515,-0.88281 -0.49609,-1.78125 -0.91797,-2.62109 -0.46484,-0.82422 -1.03515,-1.61719 -1.96484,-2.27734 -0.79297,2.13671 -0.38672,3.82812 -0.0469,5.57421 l 0.39453,2.625 0.32812,2.63282 c 0.38281,3.50781 0.54688,7.02734 0.5586,10.54297 -0.0156,2.37109 -0.13672,4.74609 -0.36329,7.10937 -0.25781,0.14063 -0.51562,0.28516 -0.77343,0.42578 0.11718,-2.57422 0.0391,-5.15625 -0.19922,-7.71875 l -0.22656,-2.04297 -0.30469,-2.02734 c -0.13281,-0.67578 -0.1875,-1.35547 -0.46094,-2.00781 -0.29687,-0.65235 -0.70312,-1.28907 -1.48437,-1.85938 -1.19532,1.51172 -1.10157,2.80469 -1.05469,4.125 l -0.0274,3.95313 c -0.0469,2.6289 -0.17578,5.24218 -0.32421,7.85156 -0.0469,0.66406 -0.11719,1.32812 -0.17579,1.99219 -1.51171,0.78125 -3.03906,1.53125 -4.57421,2.26172 -0.41797,0.19921 -0.83204,0.40234 -1.25391,0.59765 -8.21875,3.88281 -16.73828,7.11719 -25.45703,9.71875 -14.39453,4.2461 -29.32031,6.59375 -44.33203,7.3125 V 424.63281 Z M 382.53906,330.5 c -0.10156,-0.83594 -0.21484,-1.67187 -0.34765,-2.50391 l -0.9336,-4.92187 -1.32422,-4.82813 -1.25,-3.5664 -0.40625,-1.15625 c -0.65625,-1.53516 -1.3164,-3.06641 -2.00781,-4.58203 l -2.36328,-4.40235 -2.67578,-4.21093 c -1.00391,-1.32422 -1.95313,-2.69532 -3.07422,-3.92188 -1.22266,-1.14453 -2.53516,-2.21484 -4.09766,-2.99609 0.51172,1.72265 1.26954,3.15234 2.11719,4.50781 0.75391,1.42578 1.67578,2.71484 2.54297,4.04297 l 2.32031,4.14844 2.00391,4.30859 c 0.55469,1.48437 1.14062,2.94922 1.72266,4.41797 l 1.43359,4.51562 0.89844,3.69532 0.21875,0.90625 0.84765,4.65234 c 0.90235,6.20703 1.00782,12.53125 0.21875,18.74219 -0.0508,0.14843 -0.10156,0.29297 -0.15234,0.4375 0.0469,-1.53125 0.043,-3.0625 -0.0117,-4.59375 l -0.27344,-4.39453 -0.58593,-4.35938 -0.84375,-4.31641 c -0.15625,-0.61718 -0.32422,-1.23437 -0.48829,-1.85156 -0.20703,-0.79687 -0.41015,-1.60156 -0.63281,-2.39844 l -1.41015,-4.15625 -1.66016,-4.05468 c -0.64844,-1.3086 -1.23047,-2.65235 -2.01172,-3.89063 -0.86719,-1.1914 -1.83203,-2.33203 -3.11328,-3.25 0.0508,1.61328 0.41016,3.00391 0.87109,4.33985 0.38282,1.36718 0.96485,2.63671 1.48047,3.93359 l 1.33594,3.97266 1.08594,4.03906 c 0.26953,1.36719 0.57422,2.72265 0.875,4.08203 l 0.66015,4.11719 0.31641,3.14843 0.10156,1 0.22266,4.16016 c 0.125,5.54688 -0.34375,11.11719 -1.48047,16.54688 l -0.375,1.55859 c -4.12109,7.85156 -8.52734,13.79297 -11.67969,17.55469 -2.59765,3.10547 -4.33984,4.74218 -4.33984,4.74218 0,0 5.13672,-18.45312 0.5625,-30.01562 -0.082,0.19531 -0.16797,0.39062 -0.25391,0.58203 -0.46094,5.49609 -3.92187,30.92969 -28.66406,38.22266 0.0117,-0.008 0.0273,-0.0156 0.043,-0.0274 1.51172,-1.03125 2.92969,-2.3164 3.76953,-3.92968 -1.34375,1.1875 -2.90625,1.96875 -4.47266,2.63671 -1.58593,0.64844 -3.22265,1.11719 -4.88672,1.48047 -3.32031,0.71485 -6.75,1.00391 -10.1875,0.9336 -6.60156,-0.13282 -13.16406,-1.46875 -19.60156,-3.19922 -0.28515,-0.0781 -0.57031,-0.14844 -0.85156,-0.22656 -11.72656,-3.38282 -23.11328,-8.08204 -34.14063,-13.51563 -1.41406,-1.58203 -2.6914,-3.28516 -3.86718,-5.05078 -1.14844,-1.79688 -2.24219,-3.625 -3.22657,-5.53906 -0.48437,-0.95703 -0.95312,-1.92578 -1.40625,-2.91016 -0.41015,-1.00781 -0.74609,-2 -2.35937,-2.75 -0.54297,0.71094 -0.70703,1.35547 -0.76563,1.96875 -0.0273,0.60938 0.16016,1.16406 0.26954,1.73828 l 0.44921,1.69531 0.54297,1.66797 c 0.6211,1.7461 1.39453,3.44532 2.31641,5.0625 -0.28125,-0.14453 -0.5625,-0.28906 -0.84375,-0.4375 -1.64063,-1.53125 -3.22656,-3.11328 -4.70313,-4.74609 -1.9375,-2.20313 -3.73046,-4.48828 -5.14453,-6.99219 -0.70703,-1.25 -1.32422,-2.54687 -1.83203,-3.89062 -0.47265,-1.37891 -0.76953,-2.6836 -2.25,-4.09766 -0.65234,0.8125 -0.8789,1.66797 -0.94922,2.5 -0.0547,0.83984 0.14844,1.63672 0.3086,2.4375 0.35547,1.59375 0.8789,3.15234 1.53906,4.64063 0.66406,1.5 1.45703,2.92578 2.34766,4.27734 -6.57422,-3.74219 -13.0586,-7.66406 -19.45704,-11.71484 -0.0352,-0.0703 -0.0703,-0.14063 -0.0977,-0.21094 -0.31641,-0.66797 -0.625,-1.32813 -1,-1.9375 -0.36328,-0.61719 -0.72266,-1.22656 -1.125,-1.8086 -0.39453,-0.58984 -0.74219,-1.20312 -1.11719,-1.80078 -1.44141,-2.42578 -2.61328,-4.98047 -3.50391,-7.62109 -0.84765,-2.61328 -1.45312,-5.30078 -1.77343,-8.05469 0,-0.004 0,-0.004 0,-0.004 -0.004,-0.0391 -0.0117,-0.0781 -0.0156,-0.11329 -0.15234,-1.40234 -0.24219,-2.8125 -0.27734,-4.23828 0,-0.29297 0.004,-0.58593 0.004,-0.875 -0.004,-1.13672 -0.11328,-2.28515 -1.03125,-3.61718 -0.70312,0.55078 -1.11328,1.17187 -1.41796,1.8164 -0.0352,0.082 -0.082,0.16016 -0.11329,0.24219 -0.28125,0.73437 -0.32031,1.50391 -0.44921,2.26172 -0.0937,0.76172 -0.14454,1.53125 -0.21485,2.30078 -0.043,0.76953 -0.0352,1.54687 -0.0547,2.32031 0.0352,3.10156 0.5,6.23438 1.46485,9.21094 0.55469,1.80078 1.28125,3.54297 2.10547,5.23047 0,0 0,0 0,0.004 0.33203,0.67969 0.68359,1.34766 1.04687,2.00782 -0.34765,-0.23047 -0.69922,-0.45313 -1.04687,-0.6836 -9.42969,-6.1914 -18.70313,-12.63281 -27.85547,-19.24609 -0.71094,-4.25391 -1.21485,-8.64063 -1.51953,-12.98047 -0.1211,-1.72656 -0.19141,-3.45312 -0.24219,-5.17969 -0.0781,-2.89062 -0.0586,-5.78125 0.12109,-8.64453 0.25391,-3.85547 0.77344,-7.69922 1.83203,-11.29687 0.19532,-0.66016 0.39844,-1.31641 0.63282,-1.95703 1.41015,-3.90625 3.78515,-7.39454 7.23828,-8.90235 6.59375,1.73438 13.1914,3.4336 19.79297,5.11328 4.65625,1.1836 9.30859,2.36328 13.96875,3.51953 11.5039,2.8711 23.04297,5.59766 34.625,8.16797 5.79297,1.28125 11.60156,2.51563 17.4414,3.63282 2.91797,0.5625 5.85157,1.07812 8.80469,1.54296 0.87891,0.13282 1.75781,0.25782 2.64063,0.37891 0.30078,0.0625 0.60546,0.12109 0.90625,0.18359 0.125,0.0274 0.25781,0.0352 0.39062,0.0312 0.0586,-0.004 0.11328,-0.0195 0.17188,-0.0273 1.61328,0.19141 3.2539,0.33203 4.94921,0.35156 5.72657,0.004 11.4961,1.07813 17.14844,2.53907 5.67188,1.45703 11.26172,3.34765 16.81641,5.46484 -2.5,-1.625 -5.15235,-3 -7.84766,-4.27344 -2.70312,-1.26953 -5.48828,-2.375 -8.32422,-3.34765 -5.5625,-1.83985 -11.38672,-3.15625 -17.38672,-3.26563 -0.13281,0 -0.26562,-0.0117 -0.39843,-0.0117 -1.23047,-0.0312 -2.49219,-0.14453 -3.76172,-0.29297 l -0.14063,-2.67578 6.1875,-15.78125 -3.92968,2.14063 c 0.0781,-0.17578 0.14843,-0.35157 0.23437,-0.52344 1.53125,-3.14063 3.80859,-5.99219 6.39844,-8.49609 0.64453,-0.60938 1.30859,-1.21094 1.98437,-1.80469 2.10157,-1.85547 4.32422,-3.65625 6.53907,-5.53906 1.46484,-1.2461 2.91796,-2.53125 4.30859,-3.90625 0.6875,-0.69532 1.41406,-1.35547 1.97266,-2.1875 0.54296,-0.84375 0.98046,-1.78516 1.08593,-2.96485 -2.28515,0.50781 -3.59765,1.71094 -5.05078,2.89844 -0.26953,0.21094 -0.54687,0.41406 -0.82031,0.62109 -1.21094,0.92578 -2.44531,1.83594 -3.69531,2.73828 -1.4961,1.08594 -3.01953,2.17969 -4.52344,3.32813 8.14062,-11.28906 18.71875,-24.40625 26.13672,-27.91797 0,0 -30.875,-5.03906 -39.2461,4.58594 l -0.20703,-0.55469 c -0.0234,-0.58203 -0.0508,-1.16797 -0.0703,-1.75 0.21484,-0.28516 0.33594,-0.59375 0.51953,-0.88672 0.38672,-0.66406 0.75391,-1.32031 1.05078,-2 0.33594,-0.66797 0.62891,-1.34765 0.89844,-2.03906 l 0.89844,-2.02734 c 0.89844,-1.91016 1.92578,-3.75782 3.05078,-5.54688 0.45312,-0.71875 0.91797,-1.42969 1.40234,-2.13281 1.71485,-2.41406 3.56641,-4.74219 5.59766,-6.92188 l 1.55469,-1.61328 1.61328,-1.5625 c 0.59765,-0.52734 1.19531,-1.03125 1.70703,-1.67969 0.1875,-0.23828 0.35937,-0.5 0.51953,-0.78906 6.58594,-2.62109 13.07422,-3.20703 13.07422,-3.20703 0,0 -17.30859,-8.03125 -26.17578,-8.57422 0.53125,-0.88281 1.07031,-1.76172 1.61719,-2.64062 0.28515,-0.45313 0.58984,-0.90235 0.875,-1.35547 1.02343,-1.60938 2.05078,-3.21094 3.10546,-4.8086 1.38672,-2.03125 2.80079,-4.01562 3.42579,-6.70703 -2.55079,1.09766 -4.19532,3 -5.80469,4.90235 -1.62891,1.89453 -3.1875,3.85937 -4.67969,5.8789 -0.0352,0.0508 -0.0742,0.10547 -0.11328,0.16016 -2.89453,4.02734 -5.5625,8.25391 -7.36719,13.21094 -0.19531,0.65625 -0.41797,1.28125 -0.58594,1.96875 l -0.20312,1.08203 -0.11328,0.99609 c -0.14063,1.32031 -0.20313,2.58203 -0.2461,3.84766 -0.0859,2.52344 -0.0976,5.01562 -0.0703,7.5039 0.043,4.98047 0.19141,9.9375 0.37891,14.89063 0.082,2.12109 0.17187,4.24219 0.26562,6.36328 v 27.28906 l -17.63281,16.91797 c -0.49219,0.33985 -0.97266,0.69531 -1.41406,1.10938 -0.3086,0.29297 -0.58594,0.62109 -0.85547,0.96093 -1.41797,-0.32421 -2.84375,-0.64453 -4.26172,-0.97656 -11.51172,-2.69922 -22.98437,-5.60937 -34.45703,-8.52344 -0.50391,-0.1289 -1.00391,-0.26171 -1.50781,-0.39062 v -47.10547 c 7.11328,-3.53906 13.13281,-9.13281 17.14453,-16.24219 15.26953,-27.03906 46.51953,-70.67578 86.74609,-64.71875 32.53516,4.81641 46.02344,26.73828 51.59766,44.96875 -0.13281,-0.23828 -0.25781,-0.48437 -0.39453,-0.72265 -1.82422,-3.20703 -3.89844,-6.26953 -6.19922,-9.14844 -2.30078,-2.875 -4.76172,-5.62109 -7.46094,-8.11719 -2.69141,-2.5039 -5.55469,-4.8164 -8.55859,-6.91406 -2.97266,-2.11719 -6.15235,-4.0625 -9.98438,-4.55469 2.4961,2.91016 5.39844,4.82031 8.20703,6.96485 2.78125,2.16406 5.40625,4.51953 7.85547,7.03906 2.4375,2.52734 4.76563,5.15625 6.85938,7.96484 2.09375,2.8086 4.01562,5.73828 5.73828,8.77735 3.41797,6.09765 6.00781,12.66406 7.64453,19.46484 0.0234,0.10156 0.0469,0.20312 0.0664,0.30078 0.1875,3.125 0.12109,4.98828 0.12109,4.98828 0,0 -12.83594,-25.08984 -24.53906,-28.71484 0,0 12.21875,20.28515 19.55859,42.85547 l -0.73047,-1.53125 c -0.78125,-1.4336 -1.5664,-2.86719 -2.3789,-4.28125 l -2.64844,-4.11328 -2.88672,-3.94532 c -1.04688,-1.24609 -2.03906,-2.54297 -3.19922,-3.6875 -1.23828,-1.07812 -2.55859,-2.07812 -4.13281,-2.79297 0.54297,1.67969 1.33984,3.07032 2.21484,4.38672 0.8086,1.3711 1.78516,2.59375 2.70313,3.86719 l 2.55078,3.94531 2.3125,4.08985 c 0.68359,1.40625 1.39453,2.79687 2.10547,4.1875 l 1.8789,4.28906 1.63672,4.38672 1.4375,4.44922 c 1.73438,5.99218 2.84375,12.16406 3.22656,18.38672 l 0.11329,3.32421 c -3.26563,-1.375 -16.35157,-6.26171 -31.6875,-3.36718 0,0 22.0039,9.58593 30.16406,30.65234 2.38281,6.14063 3.58594,13.25781 2.72656,21.39844 -0.16016,1.5 -0.36328,2.96484 -0.58594,4.41406 z M 339.64453,105.86719 c 0.004,0 0.008,0.004 0.0117,0.004 2.03125,1.01172 4.01953,2.01563 5.96094,3.01563 2.17578,1.125 4.28906,2.23828 6.34375,3.33984 1.5664,0.83985 3.09765,1.67578 4.59375,2.5 22.48437,12.41797 36.33203,22.65235 36.33203,22.65235 0,0 0,30.35156 -2.41797,70.76172 -1.01953,-5.13282 -2.55078,-10.84375 -4.83594,-16.66797 -10.28906,-26.1875 -30.46484,-42.2461 -58.35547,-46.44141 -3.04296,-0.45703 -6.13281,-0.6875 -9.18359,-0.6875 -8.45703,0 -16.46094,1.69922 -24.00391,4.67578 0.3711,-0.28906 0.73438,-0.58594 1.10547,-0.875 l 2.76563,-2.12109 c 1.04687,-4.01172 0.94922,-8.22657 -0.27344,-12.17578 -5.39844,-17.45313 -11.21094,-36.492191 -15.53125,-51.027347 21.27344,6.445312 40.875,14.808593 57.48828,23.046877 z m 61.26563,20.65625 c -2.88282,-2.12891 -55.625,-40.64844 -123.23438,-59.082034 -0.89844,-3.1875 -1.54687,-5.613281 -1.88672,-7.070312 -0.54297,-2.359375 -1.79297,-5.160156 -3.5664,-8.226563 C 261.62891,33.824219 231.66797,5.6367188 212.62891,0.36328101 211.75,0.12109401 210.84766,0 209.94141,0 c -0.90235,0 -1.80469,0.12109401 -2.6836,0.36328101 -19.03906,5.27343779 -49,33.46093799 -59.59375,51.78124999 -1.77734,3.066407 -3.02344,5.867188 -3.57031,8.226563 -0.33594,1.457031 -0.98828,3.882812 -1.88281,7.070312 C 74.597656,85.878906 21.855469,124.39453 18.972656,126.52344 15.53125,129.07031 13.5,133.09766 13.5,137.37891 c 0,5.27734 0.207031,94.6289 12.953125,171.11328 0.05078,8.48437 0.226563,15.32031 0.597656,18.8789 1.988282,19.07032 8.660157,34.53907 15.230469,45.64063 2.363281,6.44141 4.917969,12.37891 7.683594,17.67969 37.527344,71.91797 152.566406,94.63672 157.445316,95.57031 0.83593,0.16016 1.6875,0.23828 2.53125,0.23828 0.84765,0 1.69922,-0.0781 2.53515,-0.23828 4.87891,-0.93359 119.91797,-23.65234 157.44532,-95.57422 2.78515,-5.33594 5.35546,-11.32422 7.73437,-17.82031 6.55859,-11.08203 13.19531,-26.4961 15.17969,-45.4961 0.37109,-3.55859 0.54687,-10.39843 0.59765,-18.88281 12.7461,-76.48047 12.95313,-165.83203 12.95313,-171.10937 0,-4.28125 -2.03125,-8.3086 -5.47656,-10.85547" /></g></g></g><g
         clip-path="url(#clipPath1003)"
         id="g68"><g
           clip-path="url(#clipPath74)"
           id="g70"><g
             transform="matrix(3.4866366,0,0,-3.5035033,112.90348,978.14142)"
             id="g76"><path
               inkscape:connector-curvature="0"
               id="path78"
               style="fill:#21224e;fill-opacity:1;fill-rule:nonzero;stroke:none"
               d="M 57.900002,0 0,99.900002 H 351 L 293.10001,0 Z" /></g></g></g><g
         style="fill:#ffffff"
         transform="translate(511.46333,515.80212)"
         id="g80"><text
           id="text140"
           y="396.01407"
           x="-110.97919"
           style="font-style:normal;font-variant:normal;font-weight:normal;font-stretch:normal;font-size:111.04155731px;line-height:1.25;font-family:Arial;-inkscape-font-specification:Arial;letter-spacing:0px;word-spacing:0px;fill:#ffffff;fill-opacity:1;stroke:none;stroke-width:2.77603912"
           xml:space="preserve"><tspan
             style="font-style:normal;font-variant:normal;font-weight:normal;font-stretch:normal;font-family:'Brandon Grotesque';-inkscape-font-specification:'Brandon Grotesque';fill:#ffffff;stroke-width:2.77603912"
             y="396.01407"
             x="-110.97919"
             id="tspan138"
             sodipodi:role="line">WHO WINS ?</tspan></text>
</g><g
         id="g94"><g
           clip-path="url(#clipPath100)"
           id="g96"><g
             transform="matrix(1.3875,0,0,1.3798184,382.43286,931.39838)"
             id="g102"><path
               inkscape:connector-curvature="0"
               id="path104"
               style="fill:#9f4393;fill-opacity:1;fill-rule:nonzero;stroke:none"
               d="M 41.282001,32.875999 C 50,59.855999 58.715,86.839996 67.433998,113.823 186.101,75.476997 313.89401,75.476997 432.56198,113.82 c 8.715,-26.981003 17.43399,-53.965 26.147,-80.945999 C 323.043,-10.958 176.94901,-10.958 41.282001,32.875999 Z" /></g></g></g><text
         id="text146"
         y="1019.8112"
         x="627.18048"
         style="font-style:normal;font-variant:normal;font-weight:normal;font-stretch:normal;font-size:81.22921753px;line-height:1.25;font-family:Arial;-inkscape-font-specification:Arial;letter-spacing:0px;word-spacing:0px;fill:#ffffff;fill-opacity:1;stroke:none;stroke-width:2.03073049"
         xml:space="preserve"><tspan
           style="font-style:normal;font-variant:normal;font-weight:normal;font-stretch:normal;font-family:'Brandon Grotesque';-inkscape-font-specification:'Brandon Grotesque';fill:#ffffff;stroke-width:2.03073049"
           y="1019.8112"
           x="627.18048"
           id="tspan144"
           sodipodi:role="line">VOTE</tspan></text>
</g></g></svg>